<?xml version="1.0" encoding="UTF-8"?>
<svg id="Layer_2" data-name="Layer 2" xmlns="http://www.w3.org/2000/svg" xmlns:xlink="http://www.w3.org/1999/xlink" viewBox="0 0 378.59 419.9">
  <defs>
    <style>
      .cls-1 {
        fill: none;
      }

      .cls-1, .cls-2, .cls-3, .cls-4, .cls-5, .cls-6, .cls-7, .cls-8, .cls-9, .cls-10, .cls-11, .cls-12, .cls-13 {
        stroke-width: 0px;
      }

      .cls-14 {
        font-size: 34px;
      }

      .cls-14, .cls-15, .cls-16, .cls-10 {
        fill: #fff;
      }

      .cls-14, .cls-17 {
        font-family: Cousine-Bold, Cousine;
        font-weight: 700;
      }

      .cls-14, .cls-17, .cls-16, .cls-18 {
        isolation: isolate;
      }

      .cls-15 {
        stroke: #2b50a2;
        stroke-miterlimit: 10;
        stroke-width: 8px;
      }

      .cls-17 {
        fill: #4c4b4c;
      }

      .cls-17, .cls-16 {
        font-size: 21px;
      }

      .cls-16 {
        font-family: Hack-Regular, Hack;
      }

      .cls-18 {
        opacity: .27;
      }

      .cls-2 {
        fill: #82aee3;
      }

      .cls-3 {
        fill: #528fd8;
      }

      .cls-4 {
        fill: #212322;
      }

      .cls-5 {
        fill: #ddd;
      }

      .cls-6 {
        fill: #d8ecfe;
      }

      .cls-7 {
        fill: #b2caec;
      }

      .cls-8 {
        fill: #b2c5cc;
      }

      .cls-9 {
        fill: #969cde;
      }

      .cls-11 {
        fill: #fd3581;
      }

      .cls-12 {
        fill: #fe5694;
      }

      .cls-13 {
        fill: #0047ba;
      }
    </style>
  </defs>
  <g id="a">
    <path class="cls-15" d="m356,99.7L195,6.7c-6.2-3.6-13.8-3.6-20,0L14,99.7c-6.2,3.6-10,10.2-10,17.3v185.9c0,7.1,3.8,13.7,10,17.3l161,93c6.2,3.6,13.8,3.6,20,0l161-93c6.2-3.6,10-10.2,10-17.3V117c0-7.2-3.8-13.8-10-17.3Z"/>
    <path class="cls-10" d="m279.6,102.2v187.3c0,3.9-3.2,7.1-7.1,7.1h-122.8l-8-17.9-17-7V102.3c0-3.9,3.2-7.1,7.1-7.1h140.7c3.9-.1,7.1,3.1,7.1,7h0Z"/>
    <path class="cls-5" d="m279.6,102.2v187.3c0,3.9-3.2,7.1-7.1,7.1h-10.6c3.9,0,7.1-3.2,7.1-7.1V102.2c0-3.9-3.2-7.1-7.1-7.1h10.6c3.9,0,7.1,3.2,7.1,7.1Z"/>
    <path class="cls-6" d="m124.8,271.5h23.2c1,0,1.8.8,1.8,1.8v23.2l-25-25Z"/>
    <path class="cls-12" d="m233.9,116.4v41.8c0,3.3-2.7,6-6,6h-107.3c-3.3,0-6-2.7-6-6v-41.8c0-3.3,2.7-6,6-6h107.3c3.3,0,6,2.7,6,6Z"/>
    <path class="cls-11" d="m233.9,116.4v41.8c0,3.3-2.7,6-6,6h-10.8c3.4,0,6.2-2.8,6.2-6.2v-41.4c0-3.4-2.8-6.2-6.2-6.2h10.8c3.3,0,6,2.7,6,6Z"/>
    <path class="cls-8" d="m260.7,260.6h-92.1c-1.8,0-3.2-1.4-3.2-3.2s1.4-3.2,3.2-3.2h92.1c1.8,0,3.2,1.4,3.2,3.2s-1.4,3.2-3.2,3.2Z"/>
    <path class="cls-8" d="m260.7,275.2h-92.1c-1.8,0-3.2-1.4-3.2-3.2s1.4-3.2,3.2-3.2h92.1c1.8,0,3.2,1.4,3.2,3.2,0,1.7-1.4,3.2-3.2,3.2Z"/>
    <path class="cls-2" d="m158.9,286.3c0,10.2-22.1,18.5-49.5,18.5s-49.5-8.3-49.5-18.5v-92.7c0,10.2,98.9,10.2,98.9,0v92.7h.1Z"/>
    <ellipse class="cls-7" cx="109.5" cy="193.5" rx="49.5" ry="18.5"/>
    <g>
      <path class="cls-3" d="m158.9,249.2c0,10.2-22.2,18.5-49.5,18.5s-49.5-8.3-49.5-18.5h0v18.8c2.6,1.7,5.7,3.3,9.4,4.8,10.8,4.2,25,6.6,40,6.6s29.3-2.3,40-6.6c3.7-1.5,6.8-3.1,9.4-4.8l.2-18.8h0Z"/>
      <path class="cls-3" d="m60,218.7h0v18.8c2.6,1.7,5.7,3.3,9.4,4.8,10.8,4.2,25,6.6,40,6.6s29.3-2.3,40-6.6c3.7-1.5,6.8-3.1,9.4-4.8v-18.8c0,10.2-22.2,18.5-49.5,18.5s-49.3-8.3-49.3-18.5h0Z"/>
    </g>
    <rect class="cls-1" x="123.3" y="122.9" width="109" height="41.5"/>
    <text class="cls-14" transform="translate(123.29 147.57) scale(.98 1)"><tspan x="0" y="0">ADaMs</tspan></text>
    <g>
      <image class="cls-18" width="274" height="92" transform="translate(105.79 166.24)" xlink:href="../A6385B238BA9991.png"/>
      <rect class="cls-4" x="116" y="172.6" width="229.7" height="48"/>
    </g>
    <rect class="cls-1" x="123.9" y="187.8" width="225.1" height="22.1"/>
    <text class="cls-16" transform="translate(123.92 203.74)"><tspan x="0" y="0">for R Submissions</tspan></text>
    <rect class="cls-1" x="150.5" y="73.6" width="101.2" height="20.8"/>
    <text class="cls-17" transform="translate(66.1 337.26) rotate(30.49) scale(.98 1)"><tspan x="0" y="0">Pilot 3</tspan></text>
    <g>
      <path class="cls-4" d="m233,369.1c-1.5-.3-2.6-1.1-3.3-2.4l-.6-1c-.8-1.3-.9-2.7-.3-4.1.5-1.4,1.5-2.5,2.9-3.2,1.6-.9,3.3-1.1,5-.5l-1.2,2.6c-.9-.3-1.8-.2-2.6.2-.7.4-1.1,1-1.3,1.8-.2.8-.1,1.6.3,2.3s1,1.3,1.8,1.5c.8.3,1.5.2,2.3-.2s1.2-1.1,1.5-2.1l2.8.4c-.4,1.8-1.5,3.1-3.1,4-1.3.8-2.7,1-4.2.7Z"/>
      <path class="cls-4" d="m243.4,363.2c-1.5-.4-2.7-1.4-3.5-2.9s-1-3-.6-4.5,1.4-2.7,2.9-3.5,3-1,4.5-.6,2.7,1.4,3.5,2.9,1,3,.6,4.5-1.4,2.7-2.9,3.5c-1.4.8-2.9,1-4.5.6Zm3.1-3c.8-.4,1.2-1,1.4-1.8.2-.8.1-1.6-.4-2.3-.4-.8-1-1.3-1.8-1.5-.8-.3-1.6-.2-2.3.3-.8.4-1.2,1-1.4,1.8-.2.8-.1,1.6.4,2.3.4.8,1,1.3,1.8,1.5s1.6.1,2.3-.3Z"/>
      <path class="cls-4" d="m254.2,350.6l3.6,6.4-2.8,1.6-5.5-9.8,2.7-1.9.5.9c.4-1,1-1.7,1.9-2.3,1.3-.7,2.5-.9,3.6-.5s2,1.1,2.5,2.1l3.5,6.3-2.8,1.6-3.1-5.6c-.4-.7-.8-1.1-1.4-1.3-.5-.2-1.2-.1-1.8.3-.7.4-1,1.1-.9,2.2Z"/>
      <path class="cls-4" d="m266.7,339.1c.7-.1,1.3,0,2,.2l-.6,2.7c-.8-.3-1.5-.3-2.2.1s-1.1.8-1.2,1.2c-.1.4,0,.6.4.7.3.1.9,0,1.7-.2,1.1-.5,2.1-.6,2.9-.5.9.1,1.7.8,2.3,2,.5,1,.6,1.9.1,2.9-.5.9-1.2,1.7-2.2,2.3-1,.5-1.8.8-2.6.9-.8.1-1.5,0-2.2-.2l.6-2.7c.8.3,1.7.2,2.7-.2.8-.4,1.2-.8,1.3-1.2.1-.4,0-.6-.3-.8-.3-.2-.9,0-1.9.4-.9.4-1.8.5-2.7.5s-1.7-.6-2.3-1.8c-.6-1.1-.6-2.1-.2-3.1.5-1,1.1-1.7,1.9-2.2,1.1-.6,1.9-.9,2.5-1Z"/>
      <path class="cls-4" d="m276,345c-1.5-.4-2.7-1.4-3.5-2.9s-1-3-.6-4.5,1.4-2.7,2.9-3.5,3-1,4.5-.6,2.7,1.4,3.5,2.9,1,3,.6,4.5-1.4,2.7-2.9,3.5c-1.5.9-2.9,1.1-4.5.6Zm3.2-3c.8-.4,1.2-1,1.4-1.8.2-.8.1-1.6-.4-2.3-.4-.8-1-1.3-1.8-1.5-.8-.3-1.6-.2-2.3.3-.8.4-1.2,1-1.4,1.8-.2.8-.1,1.6.4,2.3.4.8,1,1.3,1.8,1.5.7.2,1.5.1,2.3-.3Z"/>
      <path class="cls-4" d="m285.1,330c.3-1.2,1-2,2-2.6.3-.2.7-.3,1-.5l1.1,3.1c-.5-.1-1,0-1.7.3-.7.4-.9,1.3-.9,2.5l3.5,6.2-2.8,1.6-5.5-9.8,2.7-1.9.6,1.1Z"/>
      <path class="cls-4" d="m300.1,333.4c-1.2.6-2.3.8-3.3.6s-1.8-.9-2.4-1.9l-2.4-4.4-1.5.8-1.3-2.3,1.5-.8-1.5-2.7,2.7-1.9,1.7,3.1,1.5-.8,1.3,2.3-1.5.8,2.2,4c.3.5.6.9,1,1s.7,0,1.1-.2c.1-.1.3-.2.7-.6l1.7,1.7c-.3.5-.8.9-1.5,1.3Z"/>
      <path class="cls-4" d="m296.3,317.8c.1-.4.4-.7.9-1,.5-.3.9-.3,1.3-.2.4.1.7.4,1,.8.2.4.3.8.2,1.2-.1.4-.4.7-.9,1s-.9.3-1.3.2c-.4-.1-.7-.4-1-.8-.3-.4-.3-.8-.2-1.2Zm10.1,12.1l-5.6-10.1-2.8,1.6,5.6,10.1,2.8-1.6Z"/>
      <path class="cls-4" d="m312.9,321.5l-3.6-6.5,2.8-1.6,5.6,10.1-2.8,1.6-.5-.9c-.4,1-1,1.7-1.9,2.3-1.3.7-2.5.9-3.6.5s-2-1.1-2.5-2.1l-3.5-6.3,2.8-1.6,3.1,5.6c.4.7.8,1.1,1.4,1.3.5.2,1.2.1,1.8-.3.7-.4.9-1.1.9-2.1Z"/>
      <path class="cls-4" d="m319.4,314.2l3.6,6.5-2.8,1.6-5.5-9.8,2.7-1.9.5.9c.3-.9,1-1.7,1.9-2.2,1.3-.7,2.5-.9,3.6-.5.3-1.2,1.2-2.2,2.7-3,1.3-.7,2.5-.9,3.6-.5,1.1.4,2,1.1,2.5,2.1l3.5,6.3-2.8,1.6-3.1-5.6c-.4-.7-.8-1.1-1.3-1.3s-1.1-.1-1.8.2c-.5.3-.8,1-.8,1.9.1.2.2.5.3.7l3.3,5.9-2.8,1.6-3.1-5.5c-.4-.7-.8-1.1-1.3-1.3s-1.1-.1-1.8.2c-.8.3-1.1,1.1-1.1,2.1Z"/>
      <path class="cls-13" d="m213.6,370.7c1.2,2.2,1.1,4-.2,5.6l6.1,2.9-3.7,2.1-5.4-2.6-2.1,1.2,2.4,4.3-3,1.7-7.5-13.4,5.1-2.8c2.1-1.2,3.8-1.6,5.1-1.4,1.3,0,2.3.9,3.2,2.4Zm-2.7,3.6c.2-.5.1-1.2-.3-1.9s-.9-1.1-1.4-1.1-1.3.2-2.2.7l-2.2,1.2,2.2,3.9,2.2-1.2c.9-.5,1.5-1,1.7-1.6Z"/>
      <path class="cls-13" d="m208.3,393.8h0c-1,0-1.9-.9-1.9-2h0c0-1,.9-1.9,2-1.9h0c1,0,1.9.9,1.9,2h0c0,.7-.4,1.3-1,1.6h0c-.3.2-.7.3-1,.3Zm13-8.1c-.9-.5-1.2-1.7-.7-2.6h0c.5-.9,1.7-1.2,2.6-.6h0c.9.5,1.2,1.7.7,2.6h0c-.2.3-.4.5-.7.7h0c-.6.3-1.3.3-1.9-.1Zm-21.9,5.6c-.9-.5-1.2-1.7-.7-2.6h0c.5-.9,1.7-1.2,2.6-.7h0c.9.5,1.2,1.7.7,2.6h0c-.2.3-.4.5-.7.7h0c-.6.3-1.3.3-1.9,0Zm21.5-22.3q-.1,0,0,0h0c-.5-1-.2-2.2.7-2.7h0c.9-.5,2.1-.2,2.6.7h0c.5.9.2,2.1-.7,2.6h0c-1,.6-2.1.3-2.6-.6Zm-28.4,8.6c-1,0-1.9-.9-1.9-2h0c0-1,.9-1.9,2-1.9h0c1,0,1.9.9,1.9,1.9h0c0,.7-.4,1.3-1,1.7h0c-.3.2-.6.3-1,.3Zm16.2-15.8c-1,0-1.9-.9-1.9-2h0c0-1,.9-1.9,2-1.9h0c1,0,1.9.9,1.9,2h0c0,.7-.4,1.3-1,1.6h0c-.3.2-.6.3-1,.3Zm-7,1.8c-.9.5-2.1.2-2.6-.7h0c-.5-.9-.2-2.1.7-2.6h0c.9-.5,2.1-.2,2.6.7h0c.5.9.2,2-.7,2.6Z"/>
      <path class="cls-9" d="m214.7,390.8c-.5-.9-.2-2.1.7-2.6h0c.9-.5,2.1-.2,2.6.7h0c.5.9.2,2.1-.7,2.6h0c-.9.5-2.1.2-2.6-.7Z"/>
      <path class="cls-9" d="m224.5,378c-1,0-1.9-.9-1.9-2h0c0-1,.9-1.9,2-1.9h0c1,0,1.9.9,1.9,2h0c0,.7-.4,1.3-1,1.6h0c-.3.2-.6.3-1,.3Z"/>
      <path class="cls-9" d="m192.9,384.6c-.5-.9-.2-2.1.7-2.6h0c.9-.5,2.1-.2,2.6.7h0c.5.9.2,2.1-.7,2.6h0c-.9.6-2.1.2-2.6-.7Z"/>
      <path class="cls-9" d="m215.7,363.7c-.9-.5-1.2-1.7-.7-2.6h0c.5-.9,1.7-1.2,2.6-.7h0c.9.5,1.2,1.7.7,2.6h0c-.2.3-.4.5-.7.7h0c-.5.4-1.3.4-1.9,0Z"/>
      <path class="cls-9" d="m193.8,369.3c-.9-.5-1.2-1.7-.7-2.6h0c.5-.9,1.7-1.2,2.6-.7h0c.9.5,1.2,1.7.7,2.6h0c-.2.3-.4.5-.7.7h0c-.5.4-1.3.4-1.9,0Z"/>
    </g>
  </g>
</svg>