<?xml version="1.0" encoding="UTF-8"?>
<svg id="Layer_2" data-name="Layer 2" xmlns="http://www.w3.org/2000/svg" xmlns:xlink="http://www.w3.org/1999/xlink" viewBox="0 0 391.64 419.9">
  <defs>
    <style>
      .cls-1 {
        fill: none;
      }

      .cls-1, .cls-2, .cls-3, .cls-4, .cls-5, .cls-6, .cls-7, .cls-8, .cls-9, .cls-10, .cls-11, .cls-12, .cls-13, .cls-14, .cls-15, .cls-16, .cls-17 {
        stroke-width: 0px;
      }

      .cls-18 {
        stroke: #2b50a2;
        stroke-miterlimit: 10;
        stroke-width: 8px;
      }

      .cls-18, .cls-16 {
        fill: #fff;
      }

      .cls-19 {
        font-family: Hack-Regular, Hack;
        font-size: 23.38px;
      }

      .cls-19, .cls-20 {
        isolation: isolate;
      }

      .cls-20 {
        opacity: .27;
      }

      .cls-2 {
        fill: #f3eae6;
      }

      .cls-3 {
        fill: #f2fbff;
      }

      .cls-4 {
        fill: #f9f3f1;
      }

      .cls-5 {
        fill: #26a6fe;
      }

      .cls-6 {
        fill: #3692bc;
      }

      .cls-7 {
        fill: #0593fc;
      }

      .cls-8 {
        fill: #212322;
      }

      .cls-9 {
        fill: #d8ecfe;
      }

      .cls-10 {
        fill: #dff6fd;
      }

      .cls-11 {
        fill: #bfbfbf;
      }

      .cls-12 {
        fill: #333;
      }

      .cls-13 {
        fill: #969cde;
      }

      .cls-14 {
        fill: #9c9c9c;
      }

      .cls-15 {
        fill: #8ac9fe;
      }

      .cls-17 {
        fill: #0047ba;
      }
    </style>
  </defs>
  <g id="a">
    <path class="cls-18" d="m356,99.7L195,6.7c-6.2-3.6-13.8-3.6-20,0L14,99.7c-6.2,3.6-10,10.2-10,17.3v185.9c0,7.1,3.8,13.7,10,17.3l161,93c6.2,3.6,13.8,3.6,20,0l161-93c6.2-3.6,10-10.2,10-17.3V117c-.1-7.2-3.9-13.8-10-17.3Z"/>
    <g>
      <path class="cls-4" d="m199.3,238.2h-111.2c-1.8,0-3.2-1.4-3.2-3.2v-109.4h117.7v109.4c-.1,1.8-1.5,3.2-3.3,3.2Z"/>
      <g>
        <path class="cls-2" d="m191.4,139.2v11.3c4.2,1.8,8,4.4,11.1,7.7v-32.6h-13.4v11.3c1.3,0,2.3,1,2.3,2.3Z"/>
        <path class="cls-2" d="m189.1,211.5v23.5c0,1.8-1.4,3.2-3.2,3.2h13.4c1.8,0,3.2-1.4,3.2-3.2v-32c-3.6,3.8-8.2,6.8-13.4,8.5Z"/>
      </g>
      <path class="cls-5" d="m199.3,105.8h-111.2c-1.8,0-3.2,1.4-3.2,3.2v17.1h117.7v-17.1c-.1-1.8-1.5-3.2-3.3-3.2Z"/>
      <path class="cls-17" d="m199.3,105.8h-111.2c-1.8,0-3.2,1.4-3.2,3.2v17.1h117.7v-17.1c-.1-1.8-1.5-3.2-3.3-3.2Z"/>
      <path class="cls-7" d="m199.3,105.8h-13.4c1.8,0,3.2,1.4,3.2,3.2v17.1h13.4v-17.1c0-1.8-1.4-3.2-3.2-3.2Z"/>
    </g>
    <g>
      <path class="cls-16" d="m178.9,148.3c3.6,0,7,.6,10.2,1.6v-10.7h-90.7v36.7h48.6c2.2-15.6,15.7-27.6,31.9-27.6h0Z"/>
      <path class="cls-14" d="m147.4,173.5h-18.8v-7.5h21.5c.8-1.7,1.8-3.2,2.9-4.7h-24.4v-7.5h32.3c3.2-2.2,6.9-3.8,10.8-4.7h-43.1v-7.5h58.2v7.7c1.6.4,3.2.9,4.7,1.6v-11.6c0-1.3-1.1-2.3-2.3-2.3h-90.7c-1.3,0-2.3,1.1-2.3,2.3v36.7c0,1.3,1.1,2.3,2.3,2.3h48.4c-.1-1.7.1-3.2.5-4.8h0Zm-23.6,0h-23.2v-7.5h23.2v7.5Zm0-12.2h-23.2v-7.5h23.2v7.5Zm0-12.2h-23.2v-7.5h23.2v7.5Z"/>
    </g>
    <g>
      <path class="cls-15" d="m189,117.8h-14.2c-1.3,0-2.3-1.1-2.3-2.3,0-1.3,1.1-2.3,2.3-2.3h14.2c1.3,0,2.3,1.1,2.3,2.3.1,1.2-1,2.3-2.3,2.3Z"/>
      <path class="cls-15" d="m165.6,117.8h-1.2c-1.3,0-2.3-1.1-2.3-2.3,0-1.3,1.1-2.3,2.3-2.3h1.2c1.3,0,2.3,1.1,2.3,2.3.1,1.2-1,2.3-2.3,2.3Z"/>
      <path class="cls-15" d="m156.1,117.8h-1.2c-1.3,0-2.3-1.1-2.3-2.3,0-1.3,1.1-2.3,2.3-2.3h1.2c1.3,0,2.3,1.1,2.3,2.3s-1,2.3-2.3,2.3Z"/>
    </g>
    <path class="cls-11" d="m136.6,190.5h-38.3c-1.3,0-2.3-1.1-2.3-2.3,0-1.3,1.1-2.3,2.3-2.3h38.3c1.3,0,2.3,1.1,2.3,2.3,0,1.3-1,2.3-2.3,2.3Z"/>
    <path class="cls-11" d="m136.6,202h-38.3c-1.3,0-2.3-1.1-2.3-2.3s1.1-2.3,2.3-2.3h38.3c1.3,0,2.3,1.1,2.3,2.3s-1,2.3-2.3,2.3Z"/>
    <path class="cls-11" d="m107.2,213.6h-8.9c-1.3,0-2.3-1.1-2.3-2.3,0-1.3,1.1-2.3,2.3-2.3h8.9c1.3,0,2.3,1.1,2.3,2.3.1,1.2-1,2.3-2.3,2.3Z"/>
    <path class="cls-11" d="m147.9,213.6h-32.6c-1.3,0-2.3-1.1-2.3-2.3,0-1.3,1.1-2.3,2.3-2.3h32.6c1.3,0,2.3,1.1,2.3,2.3,0,1.2-1,2.3-2.3,2.3Z"/>
    <path class="cls-11" d="m189,225.1h-90.7c-1.3,0-2.3-1.1-2.3-2.3s1.1-2.3,2.3-2.3h90.7c1.3,0,2.3,1.1,2.3,2.3s-1,2.3-2.3,2.3Z"/>
    <path class="cls-10" d="m247.4,86.7v123.5c0,2.6-2.1,4.7-4.7,4.7h-81l-7.4-10-9.1-6.5v-111.7c0-2.6,2.1-4.7,4.7-4.7h92.8c2.6,0,4.7,2.1,4.7,4.7h0Z"/>
    <path class="cls-6" d="m234.8,100.7h-77c-1.2,0-2.1-.9-2.1-2.1s.9-2.1,2.1-2.1h77c1.2,0,2.1.9,2.1,2.1s-.9,2.1-2.1,2.1Z"/>
    <path class="cls-6" d="m234.5,109.8h-76.2c-1.4,0-2.5-.9-2.5-2.1s1.1-2.1,2.5-2.1h76.2c1.4,0,2.5.9,2.5,2.1s-1.2,2.1-2.5,2.1Z"/>
    <path class="cls-6" d="m234.5,118.8h-76.2c-1.4,0-2.5-.9-2.5-2.1s1.1-2.1,2.5-2.1h76.2c1.4,0,2.5.9,2.5,2.1-.1,1.2-1.2,2.1-2.5,2.1Z"/>
    <path class="cls-6" d="m234.8,184h-77c-1.2,0-2.1-.9-2.1-2.1s.9-2.1,2.1-2.1h77c1.2,0,2.1.9,2.1,2.1s-.9,2.1-2.1,2.1Z"/>
    <path class="cls-6" d="m234.8,193.4h-77c-1.2,0-2.1-.9-2.1-2.1s.9-2.1,2.1-2.1h77c1.2,0,2.1.9,2.1,2.1,0,1.1-.9,2.1-2.1,2.1Z"/>
    <path class="cls-6" d="m234.8,202.7h-76c-1.2,0-2.1-.9-2.1-2.1s.9-2.1,2.1-2.1h76c1.2,0,2.1.9,2.1,2.1,0,1.1-.9,2.1-2.1,2.1Z"/>
    <path class="cls-6" d="m234,156h-77c-1.2,0-2.1-.9-2.1-2.1s.9-2.1,2.1-2.1h77c1.2,0,2.1.9,2.1,2.1s-1,2.1-2.1,2.1Z"/>
    <path class="cls-6" d="m234,165.4h-77c-1.2,0-2.1-.9-2.1-2.1s.9-2.1,2.1-2.1h77c1.2,0,2.1.9,2.1,2.1s-1,2.1-2.1,2.1Z"/>
    <path class="cls-6" d="m234.8,146.4h-77c-1.2,0-2.1-.9-2.1-2.1s.9-2.1,2.1-2.1h77c1.2,0,2.1.9,2.1,2.1s-.9,2.1-2.1,2.1Z"/>
    <path class="cls-6" d="m234,174.7h-76c-1.2,0-2.1-.9-2.1-2.1s.9-2.1,2.1-2.1h76c1.2,0,2.1.9,2.1,2.1s-1,2.1-2.1,2.1Z"/>
    <path class="cls-9" d="m247.4,86.7v123.5c0,2.6-2.1,4.7-4.7,4.7h-7.3c2.6,0,4.7-2.1,4.7-4.7v-123.5c0-2.6-2.1-4.7-4.7-4.7h7.3c2.6,0,4.7,2.1,4.7,4.7Z"/>
    <path class="cls-9" d="m145.3,198.4h15.3c.7,0,1.2.5,1.2,1.2v15.3l-16.5-16.5Z"/>
    <path class="cls-6" d="m234.4,136.8h-76.2c-1.4,0-2.5-.9-2.5-2.1s1.1-2.1,2.5-2.1h76.2c1.4,0,2.5.9,2.5,2.1s-1.1,2.1-2.5,2.1Z"/>
    <path class="cls-6" d="m234.4,127.5h-76.2c-1.4,0-2.5-.9-2.5-2.1s1.1-2.1,2.5-2.1h76.2c1.4,0,2.5.9,2.5,2.1s-1.1,2.1-2.5,2.1Z"/>
    <g>
      <path class="cls-3" d="m294.3,235.6h-115.8c-2,0-3.7-1.6-3.7-3.7v-62.4c0-2,1.6-3.7,3.7-3.7h115.8c2,0,3.7,1.6,3.7,3.7v62.4c0,2.1-1.7,3.7-3.7,3.7Z"/>
      <path class="cls-10" d="m294.3,165.9h-15.2c2,0,3.7,1.6,3.7,3.7v62.3c0,2-1.6,3.7-3.7,3.7h15.2c2,0,3.7-1.6,3.7-3.7v-62.4c0-2-1.7-3.6-3.7-3.6Z"/>
      <g>
        <g>
          <path class="cls-13" d="m208.4,200.4v-22.5h-.4c-12.6,0-22.8,10.2-22.8,22.8s10.2,22.8,22.8,22.8,22.8-10.2,22.8-22.8v-.4h-22.4v.1Z"/>
          <path class="cls-13" d="m219.5,200.4v.4c0,10.6-7.3,19.6-17.1,22.1,1.8.5,3.7.7,5.7.7,12.6,0,22.8-10.2,22.8-22.8v-.4s-11.4,0-11.4,0Z"/>
          <path class="cls-17" d="m208.1,177.9v22.8h22.8c0-12.6-10.2-22.8-22.8-22.8h0Z"/>
          <path class="cls-17" d="m208.1,177.9v3c6.8,3.9,11.4,11.3,11.4,19.8h11.4c0-12.6-10.2-22.8-22.8-22.8h0Z"/>
        </g>
        <g>
          <path class="cls-15" d="m287.5,224.2h-47.6c-1.5,0-2.7-1.2-2.7-2.7s1.2-2.7,2.7-2.7h47.6c1.5,0,2.7,1.2,2.7,2.7s-1.2,2.7-2.7,2.7Z"/>
          <g>
            <path class="cls-17" d="m248.1,206.7v-18.3c0-1.5-1.2-2.7-2.7-2.7s-2.7,1.2-2.7,2.7v18.3h5.4Z"/>
            <path class="cls-13" d="m260.3,206.7v-14.1c0-1.5-1.2-2.7-2.7-2.7s-2.7,1.2-2.7,2.7v14.1h5.4Z"/>
            <path class="cls-17" d="m272.5,206.7v-26.8c0-1.5-1.2-2.7-2.7-2.7s-2.7,1.2-2.7,2.7v26.8h5.4Z"/>
            <path class="cls-13" d="m284.7,206.7v-9.9c0-1.5-1.2-2.7-2.7-2.7s-2.7,1.2-2.7,2.7v9.9h5.4Z"/>
          </g>
        </g>
      </g>
    </g>
    <path class="cls-15" d="m287.5,211.8h-47.6c-1.5,0-2.7-1.2-2.7-2.7s1.2-2.7,2.7-2.7h47.6c1.5,0,2.7,1.2,2.7,2.7s-1.2,2.7-2.7,2.7Z"/>
    <g>
      <image class="cls-20" width="386" height="101" transform="translate(6.82 220.83)" xlink:href="../A6385B238BA9992.png"/>
      <rect class="cls-16" x="19" y="228.7" width="333.4" height="48"/>
    </g>
    <rect class="cls-1" x="31" y="243.9" width="314.1" height="26.5"/>
    <text class="cls-19" transform="translate(30.96 261.63)"><tspan x="0" y="0">TLFs for R Submissions</tspan></text>
    <g>
      <path class="cls-12" d="m77.58,330.59c-.45.78-.98,1.28-1.68,1.68-.7.4-1.38.58-2.23.43-.81,0-1.63-.38-2.5-.88l-1.64-.96-2.33,3.97-2.42-1.42,6.57-11.22,3.97,2.33c1.38.81,2.35,1.72,2.69,2.73.29,1.09.21,2.21-.45,3.33Zm-2.55-1.38c.35-.6.43-1.14.24-1.6-.19-.46-.66-.85-1.44-1.31l-1.21-.71-2.02,3.45,1.29.76c.69.4,1.31.54,1.81.48.55-.14.97-.47,1.33-1.08Z"/>
      <path class="cls-12" d="m81.15,340.91l2.93,1.72-.91,1.55-8.46-4.95.91-1.55,3.28,1.92,3.44-5.87-2.42-1.42.91-1.55,4.66,2.73-4.35,7.42h0Zm2.98-10.42l1.01-1.73,2.33,1.36-1.01,1.73-2.33-1.36Z"/>
      <path class="cls-12" d="m91.25,346.82l2.93,1.72-.91,1.55-8.46-4.95.91-1.55,3.28,1.92,5.41-9.23-2.42-1.42.91-1.55,4.66,2.73-6.32,10.79h0Z"/>
      <path class="cls-12" d="m105.82,351.42c-.86,1.47-1.91,2.47-3.14,2.79-1.23.32-2.52.15-3.9-.66s-2.16-1.85-2.4-3.03c-.32-1.23.04-2.64.9-4.11s1.91-2.47,3.14-2.79c1.23-.32,2.52-.15,3.9.66,2.85,1.67,3.32,4.03,1.5,7.14Zm-2.42-1.42c.61-1.04.89-1.91.93-2.58s-.37-1.15-.98-1.5c-.69-.4-1.36-.45-1.92-.08s-1.19,1.04-1.8,2.08-.89,1.91-.93,2.58c.04.72.32,1.23.93,1.59.69.4,1.36.45,1.87.17.61-.45,1.24-1.13,1.9-2.25Z"/>
      <path class="cls-12" d="m110.99,350.51l-1.38-.81.91-1.55,1.47.86,2.06-1.93,1.47.86-1.36,2.33,3.19,1.87-.91,1.55-3.19-1.87-2.58,4.4c-.3.52-.37.83-.38,1.05-.01.22.06.5.18.68s.42.48.76.68c.69.4,1.43.72,2.22.95l-.91,1.55c-.83-.37-1.4-.59-1.79-.7l-1.04-.61c-.69-.4-1.24-.84-1.57-1.27-.33-.43-.47-.97-.53-1.47,0-.58.21-1.15.67-1.93l2.73-4.66Z"/>
      <path class="cls-12" d="m125.23,368.94l1.01-1.73,3.19,1.87,4.35-7.42c-.43.33-1.11.51-1.95.36-.81,0-1.55-.33-2.24-.73l1.06-1.81c.78.45,1.57.69,2.37.7s1.49-.17,2.19-.57l2.16,1.26-5.56,9.49,2.67,1.57-1.01,1.73-8.2-4.8-.05.09Z"/>
    </g>
    <g>
      <path class="cls-8" d="m230,369.4c-1.5-.3-2.6-1.1-3.3-2.4l-.6-1c-.8-1.3-.9-2.7-.3-4.1.5-1.4,1.5-2.5,2.9-3.2,1.6-.9,3.3-1.1,5-.5l-1.2,2.6c-.9-.3-1.8-.2-2.6.2-.7.4-1.1,1-1.3,1.8s-.1,1.6.3,2.3c.4.7,1,1.3,1.8,1.5.8.3,1.5.2,2.3-.2s1.2-1.1,1.5-2.1l2.8.4c-.4,1.8-1.5,3.1-3.1,4-1.3.7-2.7,1-4.2.7Z"/>
      <path class="cls-8" d="m240.4,363.5c-1.5-.4-2.7-1.4-3.5-2.9s-1-3-.6-4.5,1.4-2.7,2.9-3.5,3-1,4.5-.6,2.7,1.4,3.5,2.9,1,3,.6,4.5-1.4,2.7-2.9,3.5c-1.4.8-2.9,1-4.5.6Zm3.1-3.1c.8-.4,1.2-1,1.4-1.8s.1-1.6-.4-2.3c-.4-.8-1-1.3-1.8-1.5-.8-.3-1.6-.2-2.3.3-.8.4-1.2,1-1.4,1.8s-.1,1.6.4,2.3c.4.8,1,1.3,1.8,1.5s1.6.1,2.3-.3Z"/>
      <path class="cls-8" d="m251.2,350.8l3.6,6.4-2.8,1.6-5.5-9.8,2.7-1.9.5.9c.4-1,1-1.7,1.9-2.3,1.3-.7,2.5-.9,3.6-.5s2,1.1,2.5,2.1l3.5,6.3-2.8,1.6-3.1-5.6c-.4-.7-.8-1.1-1.4-1.3-.5-.2-1.2-.1-1.8.3-.7.5-1,1.2-.9,2.2Z"/>
      <path class="cls-8" d="m263.7,339.4c.7-.1,1.3,0,2,.2l-.6,2.7c-.8-.3-1.5-.3-2.2.1s-1.1.8-1.2,1.2c-.1.4,0,.6.4.7s.9,0,1.7-.2c1.1-.5,2.1-.6,2.9-.5.9.1,1.7.8,2.3,2,.5,1,.6,1.9.1,2.9-.5.9-1.2,1.7-2.2,2.3-1,.5-1.8.8-2.6.9-.8.1-1.5,0-2.2-.2l.6-2.7c.8.3,1.7.2,2.7-.2.8-.4,1.2-.8,1.3-1.2.1-.4,0-.6-.3-.8-.3-.2-.9,0-1.9.4-.9.4-1.8.5-2.7.5s-1.7-.6-2.3-1.8c-.6-1.1-.6-2.1-.2-3.1.5-1,1.1-1.7,1.9-2.2,1.1-.7,1.9-.9,2.5-1Z"/>
      <path class="cls-8" d="m273,345.3c-1.5-.4-2.7-1.4-3.5-2.9s-1-3-.6-4.5,1.4-2.7,2.9-3.5c1.5-.8,3-1,4.5-.6s2.7,1.4,3.5,2.9,1,3,.6,4.5-1.4,2.7-2.9,3.5c-1.5.8-2.9,1-4.5.6Zm3.2-3c.8-.4,1.2-1,1.4-1.8s.1-1.6-.4-2.3c-.4-.8-1-1.3-1.8-1.5-.8-.3-1.6-.2-2.3.3-.8.4-1.2,1-1.4,1.8s-.1,1.6.4,2.3c.4.8,1,1.3,1.8,1.5.7.2,1.5.1,2.3-.3Z"/>
      <path class="cls-8" d="m282.1,330.2c.3-1.2,1-2,2-2.6.3-.2.7-.3,1-.5l1.1,3.1c-.5-.1-1,0-1.7.3-.7.4-.9,1.3-.9,2.5l3.5,6.2-2.8,1.6-5.5-9.8,2.7-1.9.6,1.1Z"/>
      <path class="cls-8" d="m297.1,333.6c-1.2.6-2.3.8-3.3.6s-1.8-.9-2.4-1.9l-2.4-4.4-1.5.8-1.3-2.3,1.5-.8-1.4-2.7,2.7-1.9,1.7,3.1,1.5-.8,1.3,2.3-1.5.8,2.2,4c.3.5.6.9,1,1s.7,0,1.1-.2c.1-.1.3-.2.7-.6l1.7,1.7c-.5.5-.9,1-1.6,1.3Z"/>
      <path class="cls-8" d="m293.3,318c.1-.4.4-.7.9-1,.5-.3.9-.3,1.3-.2.4.1.7.4,1,.8s.3.8.2,1.2-.4.7-.9,1c-.5.3-.9.3-1.3.2-.4-.1-.7-.4-1-.8-.3-.3-.3-.7-.2-1.2Zm10,12.2l-5.6-10.1-2.8,1.6,5.6,10.1,2.8-1.6Z"/>
      <path class="cls-8" d="m309.9,321.8l-3.6-6.5,2.8-1.6,5.7,10.1-2.8,1.6-.5-.9c-.4,1-1,1.7-1.9,2.3-1.3.7-2.5.9-3.6.5s-2-1.1-2.5-2.1l-3.5-6.3,2.8-1.6,3.1,5.6c.4.7.8,1.1,1.4,1.3.5.2,1.2.1,1.8-.3.6-.4.8-1.1.8-2.1Z"/>
      <path class="cls-8" d="m316.4,314.5l3.6,6.5-2.8,1.6-5.5-9.8,2.7-1.9.5.9c.3-.9,1-1.7,1.9-2.2,1.3-.7,2.5-.9,3.6-.5.3-1.2,1.2-2.2,2.7-3,1.3-.7,2.5-.9,3.6-.5s2,1.1,2.5,2.1l3.5,6.3-2.9,1.4-3.1-5.5c-.4-.7-.8-1.1-1.3-1.3s-1.1-.1-1.8.2c-.5.3-.8,1-.8,1.9.1.2.2.5.3.7l3.3,5.9-2.9,1.6-3.1-5.5c-.4-.7-.8-1.1-1.3-1.3-.5-.2-1.1-.1-1.8.2-.6.4-.9,1.1-.9,2.2Z"/>
      <path class="cls-17" d="m210.6,371c1.2,2.2,1.1,4-.2,5.6l6.1,2.9-3.7,2.1-5.4-2.6-2.1,1.2,2.4,4.3-3,1.7-7.5-13.4,5.1-2.8c2.1-1.2,3.8-1.6,5.1-1.4,1.3-.1,2.3.8,3.2,2.4Zm-2.7,3.6c.2-.5.1-1.2-.3-1.9s-.9-1.1-1.4-1.1-1.3.2-2.2.7l-2.2,1.2,2.2,3.9,2.2-1.2c.9-.5,1.5-1.1,1.7-1.6Z"/>
      <path class="cls-17" d="m205.3,394h0c-1,0-1.9-.9-1.9-2h0c0-1,.9-1.9,2-1.9h0c1,0,1.9.9,1.9,2h0c0,.7-.4,1.3-1,1.6h0c-.3.2-.7.3-1,.3Zm13-8.1c-.9-.5-1.2-1.7-.7-2.6h0c.5-.9,1.7-1.2,2.6-.6h0c.9.5,1.2,1.7.7,2.6h0c-.2.3-.4.5-.7.7h0c-.6.3-1.3.3-1.9-.1Zm-21.9,5.6c-.9-.5-1.2-1.7-.7-2.6h0c.5-.9,1.7-1.2,2.6-.7h0c.9.5,1.2,1.7.7,2.6h0c-.2.3-.4.5-.7.7h0c-.6.4-1.3.4-1.9,0Zm21.5-22.2q-.1-.1,0,0h0c-.5-1-.2-2.2.7-2.7h0c.9-.5,2.1-.2,2.6.7h0c.5.9.2,2.1-.7,2.6h0c-1,.6-2.1.3-2.6-.6Zm-28.4,8.5c-1,0-1.9-.9-1.9-2h0c0-1,.9-1.9,2-1.9h0c1,0,1.9.9,1.9,1.9h0c0,.7-.4,1.3-1,1.7h0c-.3.3-.6.4-1,.3Zm16.2-15.8c-1,0-1.9-.9-1.9-2h0c0-1,.9-1.9,2-1.9h0c1,0,1.9.9,1.9,2h0c0,.7-.4,1.3-1,1.6h0c-.3.2-.6.3-1,.3Zm-7,1.8c-.9.5-2.1.2-2.6-.7h0c-.5-.9-.2-2.1.7-2.6h0c.9-.5,2.1-.2,2.6.7h0c.5.9.2,2.1-.7,2.6Z"/>
      <path class="cls-13" d="m211.7,391c-.5-.9-.2-2.1.7-2.6h0c.9-.5,2.1-.2,2.6.7h0c.5.9.2,2.1-.7,2.6h0c-.9.6-2.1.2-2.6-.7Z"/>
      <path class="cls-13" d="m221.5,378.3c-1,0-1.9-.9-1.9-2h0c0-1,.9-1.9,2-1.9h0c1,0,1.9.9,1.9,2h0c0,.7-.4,1.3-1,1.6h0c-.3.2-.6.3-1,.3Z"/>
      <path class="cls-13" d="m189.9,384.9c-.5-.9-.2-2.1.7-2.6h0c.9-.5,2.1-.2,2.6.7h0c.5.9.2,2.1-.7,2.6h0c-.9.5-2.1.2-2.6-.7Z"/>
      <path class="cls-13" d="m212.7,364c-.9-.5-1.2-1.7-.7-2.6h0c.5-.9,1.7-1.2,2.6-.7h0c.9.5,1.2,1.7.7,2.6h0c-.2.3-.4.5-.7.7h0c-.5.3-1.3.3-1.9,0Z"/>
      <path class="cls-13" d="m190.8,369.6c-.9-.5-1.2-1.7-.7-2.6h0c.5-.9,1.7-1.2,2.6-.7h0c.9.5,1.2,1.7.7,2.6h0c-.2.3-.4.5-.7.7h0c-.5.3-1.3.3-1.9,0Z"/>
    </g>
  </g>
</svg>