<?xml version="1.0" encoding="UTF-8"?>
<svg id="Layer_2" data-name="Layer 2" xmlns="http://www.w3.org/2000/svg" xmlns:xlink="http://www.w3.org/1999/xlink" viewBox="0 0 388.04 419.9">
  <defs>
    <style>
      .cls-1 {
        fill: none;
      }

      .cls-1, .cls-2, .cls-3, .cls-4, .cls-5, .cls-6, .cls-7, .cls-8, .cls-9, .cls-10 {
        stroke-width: 0px;
      }

      .cls-11 {
        fill: #4a63dd;
      }

      .cls-11, .cls-12, .cls-13, .cls-14, .cls-15 {
        font-size: 24px;
      }

      .cls-11, .cls-12, .cls-13, .cls-14, .cls-15, .cls-16, .cls-17, .cls-18 {
        isolation: isolate;
      }

      .cls-11, .cls-12, .cls-13, .cls-14, .cls-15, .cls-18 {
        font-family: Cousine-Bold, Cousine;
        font-weight: 700;
      }

      .cls-12 {
        fill: #e53950;
      }

      .cls-13 {
        fill: #ffc344;
      }

      .cls-14, .cls-5 {
        fill: #80d261;
      }

      .cls-19 {
        stroke: #2b50a2;
        stroke-miterlimit: 10;
        stroke-width: 8px;
      }

      .cls-19, .cls-6 {
        fill: #fff;
      }

      .cls-17 {
        opacity: .27;
      }

      .cls-2 {
        fill: #2b50a2;
      }

      .cls-3 {
        fill: #212322;
      }

      .cls-4 {
        fill: #dff6fd;
      }

      .cls-7 {
        fill: #ededef;
      }

      .cls-8 {
        fill: #e8c042;
      }

      .cls-9 {
        fill: #e8d5af;
      }

      .cls-10 {
        fill: #01c0fa;
      }

      .cls-18 {
        fill: #9e9e9d;
        font-size: 21px;
      }
    </style>
  </defs>
  <g id="a">
    <path class="cls-19" d="m356,99.7L195,6.7c-6.2-3.6-13.8-3.6-20,0L14,99.7c-6.2,3.6-10,10.2-10,17.3v185.9c0,7.1,3.8,13.7,10,17.3l161,93c6.2,3.6,13.8,3.6,20,0l161-93c6.2-3.6,10-10.2,10-17.3V117c0-7.1-3.9-13.7-10-17.3Z"/>
    <path class="cls-2" d="m289.9,91.3H75.8c-9.7,0-17.6,7.9-17.6,17.6v29.2l124.6,7.8,124.6-7.8v-29.2c.1-9.8-7.8-17.6-17.5-17.6Z"/>
    <path class="cls-4" d="m58.2,138v31.2l187,7.8,62.3-23.4v-15.6H58.2Z"/>
    <circle class="cls-5" cx="221.8" cy="114.6" r="7.8" transform="translate(73.15 315.18) rotate(-80.78)"/>
    <path class="cls-5" d="m132.4,122.4h-54.8c-2.1,0-3.8-1.7-3.8-3.8v-8c0-2.1,1.7-3.8,3.8-3.8h54.8c2.1,0,3.8,1.7,3.8,3.8v8.1c-.1,2.1-1.8,3.7-3.8,3.7Z"/>
    <path class="cls-6" d="m258.9,155.4l-11.9,11.9c-1.2,1.2-2.8,1.8-4.4,1.8H58.2v122.7c0,9.7,7.9,17.6,17.6,17.6h214.2c9.7,0,17.6-7.9,17.6-17.6v-138.2h-44.1c-1.8,0-3.4.7-4.6,1.8Z"/>
    <path class="cls-7" d="m294.9,153.6v95.3c0,27.8-22.6,50.4-50.4,50.4H63.2c-1.2,0-2.4-.1-3.5-.3,2.7,6.1,8.9,10.4,16,10.4h214.2c9.7,0,17.6-7.9,17.6-17.6v-138.2h-12.6Z"/>
    <path class="cls-9" d="m193,279.1v37.3c0,1.1-1.3,1.6-2.1.9l-3.4-3.4c-3-3-8-3-11,0s-3,8,0,11l11.4,11.4c3.3,3.3,7.8,5.1,12.4,5.1h14.1c9.7,0,17.6-7.9,17.6-17.6v-16.6c0-6.9-5.6-12.5-12.5-12.5h-9.6c-.7,0-1.2-.5-1.2-1.2v-14.4c0-4.3-3.5-7.8-7.8-7.8-4.4,0-7.9,3.5-7.9,7.8Z"/>
    <path class="cls-8" d="m215.9,302.5v-7.8h-6.1c-.7,0-1.2-.5-1.2-1.2v9c0,2,1.6,3.7,3.7,3.7s3.6-1.7,3.6-3.7Z"/>
    <path class="cls-6" d="m237.4,157.2H105c-2,0-3.7-1.6-3.7-3.7s1.6-3.7,3.7-3.7h132.4c2,0,3.7,1.6,3.7,3.7s-1.7,3.7-3.7,3.7Z"/>
    <circle class="cls-10" cx="89.4" cy="153.6" r="3.7"/>
    <g>
      <image class="cls-17" width="386" height="101" transform="translate(3.22 199.53)" xlink:href="../A6385B238BA9996.png"/>
      <rect class="cls-3" x="15.2" y="207.2" width="333.4" height="48"/>
    </g>
    <rect class="cls-1" x="18.6" y="221.9" width="358.1" height="75.2"/>
    <g class="cls-16">
      <text class="cls-14" transform="translate(18.63 239.3) scale(.98 1)"><tspan x="0" y="0">Shiny</tspan></text>
      <text class="cls-12" transform="translate(89.19 239.3) scale(.98 1)"><tspan x="0" y="0" xml:space="preserve"> for</tspan></text>
      <text class="cls-15" transform="translate(145.63 239.3) scale(.98 1)"><tspan x="0" y="0"> </tspan></text>
      <text class="cls-11" transform="translate(159.75 239.3) scale(.98 1)"><tspan x="0" y="0">R</tspan></text>
      <text class="cls-15" transform="translate(173.86 239.3) scale(.98 1)"><tspan x="0" y="0"> </tspan></text>
      <text class="cls-13" transform="translate(187.97 239.3) scale(.98 1)"><tspan x="0" y="0">Submissions</tspan></text>
    </g>
    <rect class="cls-1" x="68.7" y="180.8" width="110.3" height="27.2"/>
    <text class="cls-18" transform="translate(64.63 336.03) rotate(28.28) scale(.98 1)"><tspan x="0" y="0">Pilot 2</tspan></text>
  </g>
</svg>