<?xml version="1.0" encoding="UTF-8"?>
<svg id="Layer_2" data-name="Layer 2" xmlns="http://www.w3.org/2000/svg" xmlns:xlink="http://www.w3.org/1999/xlink" viewBox="0 0 371.2 419.9">
  <defs>
    <style>
      .cls-1 {
        fill: none;
      }

      .cls-1, .cls-2, .cls-3, .cls-4, .cls-5 {
        stroke-width: 0px;
      }

      .cls-6 {
        font-family: Hack-Regular, Hack;
        font-size: 32px;
      }

      .cls-6, .cls-7, .cls-8 {
        isolation: isolate;
      }

      .cls-9 {
        fill: #fff;
        stroke: #2b50a2;
        stroke-miterlimit: 10;
        stroke-width: 8px;
      }

      .cls-2 {
        fill-rule: evenodd;
      }

      .cls-2, .cls-4, .cls-8 {
        fill: #969cde;
      }

      .cls-3 {
        fill: #212322;
      }

      .cls-5 {
        fill: #0047ba;
      }

      .cls-8 {
        font-family: Cousine-Bold, Cousine;
        font-size: 21px;
        font-weight: 700;
      }
    </style>
  </defs>
  <g id="a">
    <path class="cls-9" d="m356,99.7L195,6.7c-6.2-3.6-13.8-3.6-20,0L14,99.7c-6.2,3.6-10,10.2-10,17.3v185.9c0,7.1,3.8,13.7,10,17.3l161,93c6.2,3.6,13.8,3.6,20,0l161-93c6.2-3.6,10-10.2,10-17.3V117c0-7.1-3.8-13.7-10-17.3Z"/>
    <g id="nVDgYJ">
      <image id="nVDgYJ-2" data-name="nVDgYJ" class="cls-7" width="225" height="224" transform="translate(227.54 130.46) scale(.43)" xlink:href="../A6385B238BA9992.jpg"/>
    </g>
    <rect class="cls-1" x="26.1" y="193.7" width="345.1" height="88.4"/>
    <g class="cls-7">
      <text class="cls-6" transform="translate(26.07 218.06)"><tspan x="0" y="0">webassemly </tspan></text>
      <text class="cls-6" transform="translate(26.07 256.46)"><tspan x="0" y="0">for R Submissions</tspan></text>
    </g>
    <g>
      <path class="cls-2" d="m267.9,122.9c.2-9.6,2.2-19.3,6-28.9-21.6-3.1-39.3-13.3-52.8-30.4-13.5,17.1-31.2,27.4-52.7,30.6,8.1,20.2,8.1,40.7.1,60.9,20.7,3,38,12.5,51.3,28.5l-.1-59c0-.9.7-1.5,1.5-1.5l46.7-.2Zm9.7-30.2c0,.2,0,.4-.1.6-4.4,10.3-6.6,20.8-6.5,31.1,0,.9-.7,1.5-1.5,1.5l-46.7.1.1,61.9c0,.7-.4,1.3-1.1,1.5-.6.2-1.3,0-1.7-.5-13.5-17.9-31.7-28.3-54-31-.5-.1-.9-.3-1.2-.8-.2-.4-.3-.9-.1-1.4,8.7-20.7,8.7-41.6-.1-62.2-.2-.4-.2-1,.1-1.4.2-.4.7-.7,1.1-.8,22.3-2.8,40.4-13.3,53.9-31.2.3-.4.7-.6,1.2-.6s.9.2,1.2.6c13.5,17.9,31.7,28.3,54,31,.5.1.9.3,1.2.8.2.3.2.6.2.8h0Z"/>
      <path class="cls-2" d="m254.1,122.9c.1-6.2.9-12.6,2.3-18.8-13.2-4.1-25.1-10.9-35.2-20.3-10.1,9.4-22,16.3-35.2,20.4,3.1,13.5,3.1,27.1.1,40.6,12.6,3.9,23.9,10.2,33.7,18.9l-.1-39.2c0-.9.7-1.5,1.5-1.5l32.9-.1Zm5.6-19.8v.4c-1.7,7-2.5,14-2.5,21,0,.9-.7,1.5-1.5,1.5l-32.9.1.1,41.2c0,.6-.4,1.2-.9,1.4-.6.2-1.2.1-1.7-.3-10.4-9.9-22.7-16.9-36.4-21-.8-.2-1.3-1-1.1-1.8,3.4-14,3.3-28.1-.1-42-.2-.8.3-1.6,1.1-1.8,13.8-4.1,26-11.2,36.4-21.1.6-.6,1.5-.6,2.1,0,10.4,9.9,22.7,16.9,36.4,21,.6.1,1,.7,1,1.4h0Z"/>
      <path class="cls-2" d="m240.3,123c0-3.3.2-6.6.6-9.9-7-3.1-13.6-6.9-19.8-11.4-6.1,4.5-12.8,8.4-19.7,11.4.8,7.6.9,15.2,0,22.8,6.4,2.8,12.5,6.2,18.2,10.3v-21.7c0-.9.7-1.5,1.5-1.5h19.2Zm3.8-10.9v.2c-.5,4-.7,8.1-.7,12.2,0,.9-.7,1.5-1.5,1.5h-19.1v23.2c0,.6-.3,1.1-.9,1.4-.5.3-1.2.2-1.6-.1-6.5-4.9-13.6-9-21.1-12.1-.6-.3-1-.9-.9-1.6,1-8.1.9-16.3,0-24.4-.1-.7.3-1.3.9-1.6,7.5-3.2,14.6-7.3,21.1-12.2.5-.4,1.3-.4,1.9,0,6.5,4.9,13.6,9,21.1,12.1.5.3.8.8.8,1.4h0Z"/>
      <path class="cls-2" d="m230,123c0-1.2,0-2.4.1-3.6-3-1.6-6-3.3-8.9-5.1-2.9,1.8-5.9,3.6-8.9,5.2.2,3.4.2,6.9,0,10.3,2.5,1.3,5,2.7,7.4,4.2v-9.3c0-.9.7-1.5,1.5-1.5l8.8-.2Zm3.2-4.5h0c-.1,2.1-.2,4.1-.2,6.1,0,.9-.7,1.5-1.5,1.5h-8.8v10.6c0,.6-.3,1.1-.8,1.4-.5.3-1.1.2-1.6-.1-3.3-2.2-6.8-4.2-10.4-6-.5-.3-.9-.9-.8-1.5.2-4,.2-8,0-12,0-.6.3-1.2.8-1.5,3.5-1.8,7-3.8,10.4-6,.5-.3,1.2-.3,1.7,0,3.3,2.2,6.8,4.2,10.4,6,.5.4.8.9.8,1.5h0Z"/>
      <path class="cls-2" d="m222.7,124.5c0,.3-.1.5-.2.8-.4.7-1.4,1-2.1.6l-60.1-34.5c-.7-.4-1-1.4-.6-2.1.4-.7,1.4-1,2.1-.6l60.1,34.5c.6.3.8.8.8,1.3h0Z"/>
      <path class="cls-2" d="m282.7,89.8c0,.5-.3,1.1-.8,1.3l-119.9,69.5c-.7.4-1.7.2-2.1-.6-.4-.7-.2-1.7.6-2.1l119.9-69.5c.7-.4,1.7-.2,2.1.6.1.3.2.5.2.8h0Z"/>
      <path class="cls-2" d="m222.6,55.2l.2,138.6c0,.9-.7,1.5-1.5,1.5s-1.5-.7-1.5-1.5l-.2-138.6c0-.9.7-1.5,1.5-1.5s1.5.7,1.5,1.5Z"/>
    </g>
    <rect class="cls-1" x="31.2" y="166.7" width="101.2" height="20.8"/>
    <text class="cls-8" transform="translate(56.36 329.82) rotate(29.67) scale(.98 1)"><tspan x="0" y="0">Pilot 4a</tspan></text>
    <g>
      <path class="cls-3" d="m232.7,368.7c-1.5-.3-2.6-1.1-3.3-2.4l-.6-1c-.8-1.3-.9-2.7-.3-4.1.5-1.4,1.5-2.5,2.9-3.2,1.6-.9,3.3-1.1,5-.5l-1.2,2.6c-.9-.3-1.8-.2-2.6.2-.7.4-1.1,1-1.3,1.8s-.1,1.6.3,2.3c.4.7,1,1.3,1.8,1.5.8.3,1.5.2,2.3-.2.8-.4,1.2-1.1,1.5-2.1l2.8.4c-.4,1.8-1.5,3.1-3.1,4-1.3.7-2.8,1-4.2.7Z"/>
      <path class="cls-3" d="m243.1,362.8c-1.5-.4-2.7-1.4-3.5-2.9s-1-3-.6-4.5,1.4-2.7,2.9-3.5,3-1,4.5-.6,2.7,1.4,3.5,2.9,1,3,.6,4.5-1.4,2.7-2.9,3.5c-1.5.8-3,1-4.5.6Zm3.1-3.1c.8-.4,1.2-1,1.4-1.8s.1-1.6-.4-2.3c-.4-.8-1-1.3-1.8-1.5-.8-.3-1.6-.2-2.3.3-.8.4-1.2,1-1.4,1.8s-.1,1.6.4,2.3c.4.8,1,1.3,1.8,1.5s1.6.1,2.3-.3Z"/>
      <path class="cls-3" d="m253.9,350.1l3.6,6.4-2.8,1.6-5.5-9.8,2.7-1.9.5.9c.4-1,1-1.7,1.9-2.3,1.3-.7,2.5-.9,3.6-.5s2,1.1,2.5,2.1l3.5,6.3-2.8,1.6-3.2-5.5c-.4-.7-.8-1.1-1.4-1.3-.5-.2-1.2-.1-1.8.3-.6.3-.9,1.1-.8,2.1Z"/>
      <path class="cls-3" d="m266.4,338.7c.7-.1,1.3,0,2,.2l-.6,2.7c-.8-.3-1.5-.3-2.2.1s-1.1.8-1.2,1.2c-.1.4,0,.6.4.7.3.1.9,0,1.7-.2,1.1-.5,2.1-.6,2.9-.5.9.1,1.7.8,2.3,2,.5,1,.6,1.9.1,2.9-.5.9-1.2,1.7-2.2,2.3-1,.5-1.8.8-2.6.9s-1.5,0-2.2-.2l.6-2.7c.8.3,1.7.2,2.7-.2.8-.4,1.2-.8,1.3-1.2.1-.4,0-.6-.3-.8-.3-.2-.9,0-1.9.4-.9.4-1.8.5-2.7.5s-1.7-.6-2.3-1.8c-.6-1.1-.6-2.1-.2-3.1.5-1,1.1-1.7,1.9-2.2,1.1-.7,1.9-1,2.5-1Z"/>
      <path class="cls-3" d="m275.7,344.6c-1.5-.4-2.7-1.4-3.5-2.9s-1-3-.6-4.5,1.4-2.7,2.9-3.5,3-1,4.5-.6,2.7,1.4,3.5,2.9,1,3,.6,4.5-1.4,2.7-2.9,3.5-3,1-4.5.6Zm3.1-3.1c.8-.4,1.2-1,1.4-1.8s.1-1.6-.4-2.3c-.4-.8-1-1.3-1.8-1.5-.8-.3-1.6-.2-2.3.3-.8.4-1.2,1-1.4,1.8s-.1,1.6.4,2.3c.4.8,1,1.3,1.8,1.5.8.3,1.5.2,2.3-.3Z"/>
      <path class="cls-3" d="m284.8,329.5c.3-1.2,1-2,2-2.6.3-.2.7-.3,1-.5l1.1,3.1c-.5-.1-1,0-1.7.3-.7.4-.9,1.3-.9,2.5l3.5,6.2-2.8,1.6-5.5-9.8,2.7-1.9.6,1.1Z"/>
      <path class="cls-3" d="m299.8,332.9c-1.2.6-2.3.8-3.3.6-1-.2-1.8-.9-2.4-1.9l-2.4-4.4-1.5.8-1.3-2.3,1.5-.8-1.5-2.7,2.7-1.9,1.7,3.1,1.5-.8,1.3,2.3-1.5.8,2.2,4c.3.5.6.9,1,1s.7,0,1.1-.2c.1-.1.3-.2.7-.6l1.7,1.7c-.4.5-.9,1-1.5,1.3Z"/>
      <path class="cls-3" d="m295.9,317.3c.1-.4.4-.7.9-1s.9-.3,1.3-.2c.4.1.7.4,1,.8s.3.8.2,1.2c-.1.4-.4.7-.9,1s-.9.3-1.3.2c-.4-.1-.7-.4-1-.8-.3-.3-.3-.7-.2-1.2Zm10.1,12.2l-5.6-10.1-2.8,1.6,5.6,10.1,2.8-1.6Z"/>
      <path class="cls-3" d="m312.6,321.1l-3.6-6.5,2.8-1.6,5.6,10.1-2.8,1.6-.5-.9c-.4,1-1,1.7-1.9,2.3-1.3.7-2.5.9-3.6.5s-2-1.1-2.5-2.1l-3.5-6.3,2.8-1.6,3.1,5.6c.4.7.8,1.1,1.4,1.3.5.2,1.2.1,1.8-.3.6-.4.9-1.1.9-2.1Z"/>
      <path class="cls-3" d="m319.1,313.7l3.6,6.5-2.8,1.6-5.5-9.8,2.7-1.9.5.9c.3-.9,1-1.7,1.9-2.2,1.3-.7,2.5-.9,3.6-.5.3-1.2,1.2-2.2,2.7-3,1.3-.7,2.5-.9,3.6-.5s2,1.1,2.5,2.1l3.5,6.3-2.8,1.6-3.1-5.6c-.4-.7-.8-1.1-1.3-1.3-.5-.2-1.1-.1-1.8.2-.5.3-.8,1-.8,1.9.1.2.2.5.3.7l3.3,5.9-2.8,1.6-3.1-5.5c-.4-.7-.8-1.1-1.3-1.3-.5-.2-1.1-.1-1.8.2-.8.4-1.1,1.1-1.1,2.1Z"/>
      <path class="cls-5" d="m213.3,370.3c1.2,2.2,1.1,4-.2,5.6l6.1,2.9-3.7,2.1-5.4-2.6-2.1,1.2,2.4,4.3-3,1.7-7.5-13.4,5.1-2.8c2.1-1.2,3.8-1.6,5.1-1.4,1.2-.1,2.3.8,3.2,2.4Zm-2.8,3.6c.2-.5.1-1.2-.3-1.9s-.9-1.1-1.4-1.1-1.3.2-2.2.7l-2.2,1.2,2.2,3.9,2.2-1.2c.9-.5,1.5-1.1,1.7-1.6Z"/>
      <path class="cls-5" d="m208,393.3h0c-1,0-1.9-.9-1.9-2h0c0-1,.9-1.9,2-1.9h0c1,0,1.9.9,1.9,2h0c0,.7-.4,1.3-1,1.6h0c-.4.2-.7.3-1,.3Zm13-8.1c-.9-.5-1.2-1.7-.7-2.6h0c.5-.9,1.7-1.2,2.6-.6h0c.9.5,1.2,1.7.7,2.6h0c-.2.3-.4.5-.7.7h0c-.6.3-1.3.3-1.9-.1Zm-21.9,5.6c-.9-.5-1.2-1.7-.7-2.6h0c.5-.9,1.7-1.2,2.6-.7h0c.9.5,1.2,1.7.7,2.6h0c-.2.3-.4.5-.7.7h0c-.6.4-1.3.4-1.9,0Zm21.4-22.2q0-.1,0,0h0c-.5-1-.2-2.2.7-2.7h0c.9-.5,2.1-.2,2.6.7h0c.5.9.2,2.1-.7,2.6h0c-.9.6-2.1.3-2.6-.6Zm-28.3,8.5c-1,0-1.9-.9-1.9-2h0c0-1,.9-1.9,2-1.9h0c1,0,1.9.9,1.9,1.9h0c0,.7-.4,1.3-1,1.7h0c-.3.2-.7.3-1,.3Zm16.2-15.8c-1,0-1.9-.9-1.9-2h0c0-1,.9-1.9,2-1.9h0c1,0,1.9.9,1.9,2h0c0,.7-.4,1.3-1,1.6h0c-.3.2-.7.3-1,.3Zm-7.1,1.8c-.9.5-2.1.2-2.6-.7h0c-.5-.9-.2-2.1.7-2.6h0c.9-.5,2.1-.2,2.6.7h0c.6.9.2,2.1-.7,2.6Z"/>
      <path class="cls-4" d="m214.3,390.3c-.5-.9-.2-2.1.7-2.6h0c.9-.5,2.1-.2,2.6.7h0c.5.9.2,2.1-.7,2.6h0c-.9.6-2.1.2-2.6-.7Z"/>
      <path class="cls-4" d="m224.2,377.5c-1,0-1.9-.9-1.9-2h0c0-1,.9-1.9,2-1.9h0c1,0,1.9.9,1.9,2h0c0,.7-.4,1.3-1,1.6h0c-.4.3-.7.4-1,.3Z"/>
      <path class="cls-4" d="m192.6,384.2c-.5-.9-.2-2.1.7-2.6h0c.9-.5,2.1-.2,2.6.7h0c.5.9.2,2.1-.7,2.6h0c-.9.5-2.1.2-2.6-.7Z"/>
      <path class="cls-4" d="m215.4,363.3c-.9-.5-1.2-1.7-.7-2.6h0c.5-.9,1.7-1.2,2.6-.7h0c.9.5,1.2,1.7.7,2.6h0c-.2.3-.4.5-.7.7h0c-.6.3-1.3.3-1.9,0Z"/>
      <path class="cls-4" d="m193.5,368.9c-.9-.5-1.2-1.7-.7-2.6h0c.5-.9,1.7-1.2,2.6-.7h0c.9.5,1.2,1.7.7,2.6h0c-.2.3-.4.5-.7.7h0c-.6.3-1.3.3-1.9,0Z"/>
    </g>
  </g>
</svg>