<?xml version="1.0" encoding="UTF-8"?>
<svg id="Layer_2" data-name="Layer 2" xmlns="http://www.w3.org/2000/svg" viewBox="0 0 370 419.9">
  <defs>
    <style>
      .cls-1 {
        fill: none;
      }

      .cls-1, .cls-2, .cls-3, .cls-4, .cls-5, .cls-6 {
        stroke-width: 0px;
      }

      .cls-7 {
        stroke: #2b50a2;
        stroke-miterlimit: 10;
        stroke-width: 8px;
      }

      .cls-7, .cls-8, .cls-3, .cls-9 {
        fill: #fff;
      }

      .cls-8 {
        font-size: 25px;
      }

      .cls-8, .cls-10, .cls-9 {
        isolation: isolate;
      }

      .cls-8, .cls-9 {
        font-family: Cousine-Bold, Cousine;
        font-weight: 700;
      }

      .cls-2, .cls-3 {
        fill-rule: evenodd;
      }

      .cls-2, .cls-6 {
        fill: #0047ba;
      }

      .cls-9 {
        font-size: 17px;
      }

      .cls-4 {
        fill: #212322;
      }

      .cls-5 {
        fill: #969cde;
      }
    </style>
  </defs>
  <g id="a">
    <path class="cls-7" d="m356,99.7L195,6.7c-6.2-3.6-13.8-3.6-20,0L14,99.7c-6.2,3.6-10,10.2-10,17.3v185.9c0,7.1,3.8,13.7,10,17.3l161,93c6.2,3.6,13.8,3.6,20,0l161-93c6.2-3.6,10-10.2,10-17.3V117c0-7.1-3.8-13.7-10-17.3Z"/>
    <g>
      <path class="cls-2" d="m203.7,243.4c-.9-1.2-1.9-2.1-3.1-2.6s-2.4-.8-3.6-.8c-1.3,0-2.6.2-3.7.7-1.2.5-2.3,1.3-3.2,2.5-.9,1.2-1.7,2.7-2.2,4.6s-.8,4.2-.8,6.9.3,4.9.8,6.8c.5,1.9,1.2,3.4,2.1,4.6.9,1.2,1.9,2.1,3.1,2.6s2.4.8,3.6.8c1.3,0,2.6-.3,3.7-.8,1.2-.5,2.3-1.4,3.2-2.5s1.7-2.7,2.2-4.6c.5-1.9.8-4.2.9-6.9,0-2.7-.3-4.9-.8-6.8-.6-1.8-1.3-3.3-2.2-4.5"/>
      <path class="cls-2" d="m273.1,216.2v-97.3c0-3-.4-5.2-2.1-7l-45.3-45.3c-1.4-1.4-3.2-2.1-5.2-2.1h-112.9c-4.6,0-9.6,3.6-9.6,11.4v140.3h175.1Zm-54.5-138.5c0-1.8,2.2-2.7,3.4-1.4l39.3,39.3c1.3,1.3.4,3.4-1.4,3.4h-41.3v-41.3h0Zm-3.9,80.2v-15.6c0-2.1-1.7-3.9-3.9-3.9s-3.9-1.7-3.9-3.9,1.7-3.9,3.9-3.9c6.4,0,11.7,5.2,11.7,11.7v15.6c0,4.3,3.5,7.8,7.8,7.8,2.2,0,3.9,1.7,3.9,3.9s-1.7,3.9-3.9,3.9c-4.3,0-7.8,3.5-7.8,7.8v15.6c0,6.4-5.2,11.7-11.7,11.7-2.2,0-3.9-1.7-3.9-3.9s1.7-3.9,3.9-3.9,3.9-1.7,3.9-3.9v-15.6c0-4.7,2.1-8.8,5.4-11.7-3.2-2.9-5.4-7.1-5.4-11.7h0Zm-77.7,7.7c4.3,0,7.8-3.5,7.8-7.8v-15.6c0-6.4,5.2-11.7,11.7-11.7,2.2,0,3.9,1.7,3.9,3.9s-1.7,3.9-3.9,3.9-3.9,1.7-3.9,3.9v15.6c0,4.7-2.1,8.8-5.4,11.7,3.3,2.9,5.4,7,5.4,11.7v15.6c0,2.1,1.7,3.9,3.9,3.9s3.9,1.7,3.9,3.9-1.7,3.9-3.9,3.9c-6.4,0-11.7-5.2-11.7-11.7v-15.6c0-4.3-3.5-7.8-7.8-7.8-2.2,0-3.9-1.7-3.9-3.9s1.7-3.9,3.9-3.9h0Z"/>
      <path class="cls-2" d="m98.1,224v83.8c0,5.6,4.7,11.2,9.6,11.2h155.9c4.8,0,9.6-5.5,9.6-11.2v-83.8H98.1Z"/>
    </g>
    <path class="cls-3" d="m157.5,180.5h24v8.3h-23.4c-.1,0-.3-.1-.4-.2-.1-.1-.2-.2-.2-.4v-7.7h0Z"/>
    <path class="cls-3" d="m157.5,159.2h24v8.3h-24v-8.3Z"/>
    <path class="cls-3" d="m157.5,169.9h24v8.3h-24v-8.3Z"/>
    <path class="cls-3" d="m181.5,148.6v8.3h-24v-7.8c0-.1.1-.3.2-.4.1-.1.2-.2.4-.2l23.4.1h0Z"/>
    <path class="cls-3" d="m183.8,188.8v-8.3h24v7.8c0,.1-.1.3-.2.4-.1.1-.2.2-.4.2l-23.4-.1h0Z"/>
    <path class="cls-3" d="m207.8,167.6h-24v-8.3h24v8.3Z"/>
    <path class="cls-3" d="m207.8,178.2h-24v-8.3h24v8.3Z"/>
    <path class="cls-3" d="m207.8,157h-24v-8.3h23.4c.1,0,.3.1.4.2.1.1.2.2.2.4v7.7h0Z"/>
    <rect class="cls-1" x="104.4" y="251" width="185.5" height="70.1"/>
    <g class="cls-10">
      <text class="cls-8" transform="translate(104.43 269.14) scale(.98 1)"><tspan x="0" y="0">datasetjson </tspan></text>
      <text class="cls-9" transform="translate(100.41 289.54) scale(.98 1)"><tspan x="0" y="0">for R Submissions</tspan></text>
    </g>
    <g>
      <path class="cls-6" d="m79.11,331.16c-.47.77-1,1.27-1.7,1.66s-1.48.51-2.23.41c-.81-.02-1.63-.4-2.57-.97l-1.63-.98-2.43,4.02-2.31-1.4,6.82-11.3,3.94,2.38c1.37.83,2.28,1.84,2.68,2.91.32,1.01.1,2.16-.57,3.27Zm-2.45-1.36c.36-.6.45-1.13.26-1.59s-.68-1-1.37-1.41l-1.28-.78-2.12,3.51,1.28.78c.68.41,1.39.6,1.88.55.55-.14.98-.46,1.34-1.06Z"/>
      <path class="cls-6" d="m82.66,341.71l2.91,1.76-.98,1.63-8.48-5.12.98-1.63,3.25,1.96,3.57-5.91-2.4-1.45.98-1.63,4.71,2.84-4.55,7.53Zm3.17-10.47l1.03-1.71,2.31,1.4-1.03,1.71-2.31-1.4Z"/>
      <path class="cls-6" d="m92.77,347.81l2.91,1.76-.98,1.63-8.48-5.12.98-1.63,3.25,1.96,5.58-9.25-2.4-1.45.98-1.63,4.71,2.84-6.56,10.87Z"/>
      <path class="cls-6" d="m107.54,352.76c-.93,1.54-1.94,2.45-3.23,2.84s-2.52.11-3.98-.77c-1.37-.83-2.14-1.88-2.44-3.11s.08-2.64,1.01-4.18,1.94-2.45,3.23-2.84,2.52-.11,3.89.71c2.91,1.76,3.44,4.18,1.52,7.34Zm-2.48-1.5c.67-1.11.97-1.99.97-2.57.05-.67-.31-1.24-.99-1.65s-1.35-.47-1.92-.11c-.57.36-1.2,1.03-1.82,2.05-.67,1.11-.97,1.99-1.02,2.66.03.72.31,1.24.9,1.6.68.41,1.35.47,1.92.11.65-.31,1.34-1.06,1.96-2.09Z"/>
      <path class="cls-6" d="m112.77,351.83l-1.37-.83.98-1.63,1.46.88,2.13-1.98,1.46.88-1.45,2.4,3.17,1.91-.98,1.63-3.17-1.91-2.69,4.45c-.31.51-.43.91-.45,1.13s.05.5.17.69.41.48.75.69c.68.41,1.42.74,2.3,1.04l-.93,1.54c-.87-.29-1.47-.66-1.78-.73l-1.03-.62c-.68-.41-1.23-.86-1.56-1.29s-.55-1.03-.46-1.56c0-.58.28-1.23.69-1.92l2.76-4.76Z"/>
      <path class="cls-6" d="m137.34,371.68c-.47.77-1.05,1.35-1.75,1.74s-1.48.51-2.28.49c-.89-.07-1.77-.36-2.62-.88-1.2-.72-1.9-1.5-2.36-2.48-.37-.93-.34-1.96.11-3.09l2.41,1.22c-.22.57-.17,1.06.01,1.53s.48.76.99,1.07c.6.36,1.13.45,1.68.31s1.03-.55,1.44-1.23c.36-.6.45-1.13.31-1.68-.14-.55-.46-.98-1.06-1.34-.68-.41-1.35-.47-2.01-.16l-2.31-1.4,4.3-6.16,6.93,4.19-1.09,1.8-4.88-2.95-1.83,2.64c.91-.15,1.75,0,2.61.52,1.11.67,1.76,1.53,2.03,2.63.24.96.01,2.11-.66,3.22Z"/>
    </g>
    <g>
      <path class="cls-4" d="m229.9,368.6c-1.5-.3-2.6-1.1-3.3-2.4l-.6-1c-.8-1.3-.9-2.7-.3-4.1.5-1.4,1.5-2.5,2.9-3.2,1.6-.9,3.3-1.1,5-.5l-1.2,2.6c-.9-.3-1.8-.2-2.6.2-.7.4-1.1,1-1.3,1.8-.2.8-.1,1.6.3,2.3s1,1.3,1.8,1.5c.8.3,1.5.2,2.3-.2s1.2-1.1,1.5-2.1l2.8.4c-.4,1.8-1.5,3.1-3.1,4-1.3.7-2.7,1-4.2.7Z"/>
      <path class="cls-4" d="m240.3,362.7c-1.5-.4-2.7-1.4-3.5-2.9s-1-3-.6-4.5,1.4-2.7,2.9-3.5,3-1,4.5-.6,2.7,1.4,3.5,2.9,1,3,.6,4.5-1.4,2.7-2.9,3.5c-1.4.8-2.9,1-4.5.6Zm3.2-3.1c.8-.4,1.2-1,1.4-1.8.2-.8.1-1.6-.4-2.3-.4-.8-1-1.3-1.8-1.5-.8-.3-1.6-.2-2.3.3-.8.4-1.2,1-1.4,1.8-.2.8-.1,1.6.4,2.3.4.8,1,1.3,1.8,1.5.7.2,1.5.1,2.3-.3Z"/>
      <path class="cls-4" d="m251.1,350l3.6,6.4-2.8,1.6-5.5-9.8,2.7-1.9.5.9c.4-1,1-1.7,1.9-2.3,1.3-.7,2.5-.9,3.6-.5s2,1.1,2.5,2.1l3.5,6.3-2.8,1.6-3.1-5.6c-.4-.7-.8-1.1-1.4-1.3-.5-.2-1.2-.1-1.8.3-.7.4-.9,1.2-.9,2.2Z"/>
      <path class="cls-4" d="m263.7,338.6c.7-.1,1.3,0,2,.2l-.6,2.7c-.8-.3-1.5-.3-2.2.1s-1.1.8-1.2,1.2c-.1.4,0,.6.4.7s.9,0,1.7-.2c1.1-.5,2.1-.6,2.9-.5.9.1,1.7.8,2.3,2,.5,1,.6,1.9.1,2.9-.5.9-1.2,1.7-2.2,2.3-1,.5-1.8.8-2.6.9-.8.1-1.5,0-2.2-.2l.6-2.7c.8.3,1.7.2,2.7-.2.8-.4,1.2-.8,1.3-1.2.1-.4,0-.6-.3-.8-.3-.2-.9,0-1.9.4-.9.4-1.8.5-2.7.5s-1.7-.6-2.3-1.8c-.6-1.1-.6-2.1-.2-3.1.5-1,1.1-1.7,1.9-2.2,1-.7,1.8-1,2.5-1Z"/>
      <path class="cls-4" d="m272.9,344.5c-1.5-.4-2.7-1.4-3.5-2.9s-1-3-.6-4.5,1.4-2.7,2.9-3.5,3-1,4.5-.6,2.7,1.4,3.5,2.9,1,3,.6,4.5-1.4,2.7-2.9,3.5c-1.4.8-2.9,1-4.5.6Zm3.2-3.1c.8-.4,1.2-1,1.4-1.8.2-.8.1-1.6-.4-2.3-.4-.8-1-1.3-1.8-1.5-.8-.3-1.6-.2-2.3.3-.8.4-1.2,1-1.4,1.8-.2.8-.1,1.6.4,2.3.4.8,1,1.3,1.8,1.5.7.3,1.5.2,2.3-.3Z"/>
      <path class="cls-4" d="m282.1,329.4c.3-1.2,1-2,2-2.6.3-.2.7-.3,1-.5l1.1,3.1c-.5-.1-1,0-1.7.3-.7.4-.9,1.3-.9,2.5l3.5,6.2-2.8,1.6-5.5-9.8,2.7-1.9.6,1.1Z"/>
      <path class="cls-4" d="m297.1,332.8c-1.2.6-2.3.8-3.3.6s-1.8-.9-2.4-1.9l-2.4-4.4-1.5.9-1.3-2.3,1.5-.8-1.5-2.7,2.7-1.9,1.7,3.1,1.5-.8,1.3,2.3-1.5.8,2.2,4c.3.5.6.9,1,1s.7,0,1.1-.2c.1-.1.3-.2.7-.6l1.7,1.7c-.4.4-.9.9-1.5,1.2Z"/>
      <path class="cls-4" d="m293.2,317.2c.1-.4.4-.7.9-1s.9-.3,1.3-.2c.4.1.7.4,1,.8s.3.8.2,1.2c-.1.4-.4.7-.9,1s-.9.3-1.3.2c-.4-.1-.7-.4-1-.8-.3-.3-.3-.7-.2-1.2Zm10.1,12.2l-5.6-10.1-2.8,1.6,5.6,10.1,2.8-1.6Z"/>
      <path class="cls-4" d="m309.9,321l-3.6-6.5,2.8-1.6,5.6,10.1-2.8,1.6-.5-.9c-.4,1-1,1.7-1.9,2.3-1.3.7-2.5.9-3.6.5s-2-1.1-2.5-2.1l-3.6-6.4,2.8-1.6,3.1,5.6c.4.7.8,1.1,1.4,1.3.5.2,1.2.1,1.8-.3.7-.3.9-1,1-2Z"/>
      <path class="cls-4" d="m316.3,313.6l3.6,6.5-2.8,1.6-5.5-9.8,2.7-1.9.5.9c.3-.9,1-1.7,1.9-2.2,1.3-.7,2.5-.9,3.6-.5.3-1.2,1.2-2.2,2.7-3,1.3-.7,2.5-.9,3.6-.5s2,1.1,2.5,2.1l3.5,6.3-2.8,1.6-3.1-5.6c-.4-.7-.8-1.1-1.3-1.3s-1.1-.1-1.8.2c-.5.3-.8,1-.8,1.9.1.2.2.5.3.7l3.3,5.9-3,1.6-3.1-5.5c-.4-.7-.8-1.1-1.3-1.3s-1.1-.1-1.8.2c-.6.4-.9,1.1-.9,2.1Z"/>
      <path class="cls-6" d="m210.5,370.2c1.2,2.2,1.1,4-.2,5.6l6.1,2.9-3.7,2.1-5.4-2.6-2.1,1.2,2.4,4.3-3,1.7-7.5-13.4,5.1-2.8c2.1-1.2,3.8-1.6,5.1-1.4,1.3-.1,2.3.8,3.2,2.4Zm-2.7,3.6c.2-.5.1-1.2-.3-1.9s-.9-1.1-1.4-1.1-1.3.2-2.2.7l-2.2,1.2,2.2,3.9,2.2-1.2c.9-.5,1.5-1.1,1.7-1.6Z"/>
      <path class="cls-6" d="m205.2,393.2h0c-1,0-1.9-.9-1.9-2h0c0-1,.9-1.9,2-1.9h0c1,0,1.9.9,1.9,2h0c0,.7-.4,1.3-1,1.6h0c-.3.2-.6.3-1,.3Zm13-8.1c-.9-.5-1.2-1.7-.7-2.6h0c.5-.9,1.7-1.2,2.6-.6h0c.9.5,1.2,1.7.7,2.6h0c-.2.3-.4.5-.7.7h0c-.5.3-1.3.3-1.9-.1Zm-21.9,5.6c-.9-.5-1.2-1.7-.7-2.6h0c.5-.9,1.7-1.2,2.6-.7h0c.9.5,1.2,1.7.7,2.6h0c-.2.3-.4.5-.7.7h0c-.6.4-1.3.4-1.9,0Zm21.5-22.2q0-.1,0,0h0c-.5-1-.2-2.2.7-2.7h0c.9-.5,2.1-.2,2.6.7h0c.5.9.2,2.1-.7,2.6h0c-1,.6-2.1.3-2.6-.6Zm-28.4,8.5c-1,0-1.9-.9-1.9-2h0c0-1,.9-1.9,2-1.9h0c1,0,1.9.9,1.9,1.9h0c0,.7-.4,1.3-1,1.7h0c-.3.2-.6.3-1,.3Zm16.2-15.8c-1,0-1.9-.9-1.9-2h0c0-1,.9-1.9,2-1.9h0c1,0,1.9.9,1.9,2h0c0,.7-.4,1.3-1,1.6h0c-.3.2-.6.3-1,.3Zm-7,1.8c-.9.5-2.1.2-2.6-.7h0c-.5-.9-.2-2.1.7-2.6h0c.9-.5,2.1-.2,2.6.7h0c.5.9.2,2.1-.7,2.6Z"/>
      <path class="cls-5" d="m211.6,390.2c-.5-.9-.2-2.1.7-2.6h0c.9-.5,2.1-.2,2.6.7h0c.5.9.2,2.1-.7,2.6h0c-.9.6-2.1.2-2.6-.7Z"/>
      <path class="cls-5" d="m221.4,377.4c-1,0-1.9-.9-1.9-2h0c0-1,.9-1.9,2-1.9h0c1,0,1.9.9,1.9,2h0c0,.7-.4,1.3-1,1.6h0c-.3.3-.6.4-1,.3Z"/>
      <path class="cls-5" d="m189.8,384.1c-.5-.9-.2-2.1.7-2.6h0c.9-.5,2.1-.2,2.6.7h0c.5.9.2,2.1-.7,2.6h0c-.9.5-2,.2-2.6-.7Z"/>
      <path class="cls-5" d="m212.6,363.2c-.9-.5-1.2-1.7-.7-2.6h0c.5-.9,1.7-1.2,2.6-.7h0c.9.5,1.2,1.7.7,2.6h0c-.2.3-.4.5-.7.7h0c-.5.3-1.2.3-1.9,0Z"/>
      <path class="cls-5" d="m190.7,368.8c-.9-.5-1.2-1.7-.7-2.6h0c.5-.9,1.7-1.2,2.6-.7h0c.9.5,1.2,1.7.7,2.6h0c-.2.3-.4.5-.7.7h0c-.5.3-1.2.3-1.9,0Z"/>
    </g>
  </g>
</svg>