<?xml version="1.0" encoding="UTF-8"?>
<svg id="Layer_2" data-name="Layer 2" xmlns="http://www.w3.org/2000/svg" xmlns:xlink="http://www.w3.org/1999/xlink" viewBox="0 0 414.8 419.9">
  <defs>
    <style>
      .cls-1 {
        fill: none;
      }

      .cls-1, .cls-2, .cls-3, .cls-4, .cls-5, .cls-6, .cls-7, .cls-8, .cls-9, .cls-10, .cls-11, .cls-12, .cls-13, .cls-14, .cls-15, .cls-16, .cls-17, .cls-18, .cls-19, .cls-20, .cls-21, .cls-22, .cls-23, .cls-24, .cls-25, .cls-26 {
        stroke-width: 0px;
      }

      .cls-2 {
        fill: url(#linear-gradient);
      }

      .cls-27 {
        fill: #fcfcfc;
        stroke: #2b50a2;
        stroke-miterlimit: 10;
        stroke-width: 8px;
      }

      .cls-28 {
        font-family: Cousine-Bold, Cousine;
        font-size: 29px;
        font-weight: 700;
      }

      .cls-28, .cls-29, .cls-30 {
        isolation: isolate;
      }

      .cls-28, .cls-15 {
        fill: #212322;
      }

      .cls-31 {
        opacity: .64;
      }

      .cls-3 {
        fill: url(#linear-gradient-4);
      }

      .cls-4 {
        fill: url(#linear-gradient-2);
      }

      .cls-5 {
        fill: url(#linear-gradient-3);
      }

      .cls-6 {
        fill: url(#linear-gradient-7);
      }

      .cls-7 {
        fill: url(#linear-gradient-5);
      }

      .cls-8 {
        fill: url(#linear-gradient-6);
      }

      .cls-30 {
        opacity: .27;
      }

      .cls-9 {
        fill: #fb6cd3;
      }

      .cls-10 {
        fill: #615df9;
      }

      .cls-11 {
        fill: #5339e5;
      }

      .cls-12 {
        fill: #77d2ff;
      }

      .cls-13 {
        fill: #27a3ff;
      }

      .cls-14 {
        fill: #4520ca;
      }

      .cls-16 {
        fill: #b2caec;
      }

      .cls-17 {
        fill: #a3e2ff;
      }

      .cls-18 {
        fill: #cef2fe;
      }

      .cls-19 {
        fill: #969cde;
      }

      .cls-20 {
        fill: #ff97e2;
      }

      .cls-21 {
        fill: #f741c4;
      }

      .cls-22 {
        fill: #fff;
      }

      .cls-23 {
        fill: #fff263;
      }

      .cls-24 {
        fill: #ffd508;
      }

      .cls-25 {
        fill: #0047ba;
      }

      .cls-26 {
        fill: #0080f4;
      }
    </style>
    <linearGradient id="linear-gradient" x1="69.04" y1="341.98" x2="69.04" y2="355.82" gradientTransform="translate(182.79 -11.9) rotate(30.54)" gradientUnits="userSpaceOnUse">
      <stop offset="0" stop-color="#0080f4"/>
      <stop offset=".29" stop-color="#fb6cd3"/>
      <stop offset="1" stop-color="#615df9"/>
    </linearGradient>
    <linearGradient id="linear-gradient-2" x1="81.39" y1="340.38" x2="81.39" y2="355.6" xlink:href="#linear-gradient"/>
    <linearGradient id="linear-gradient-3" x1="93.69" y1="72.96" x2="93.69" y2="88.18" gradientTransform="translate(-35.03 357.22) rotate(30.54) scale(1 -1)" xlink:href="#linear-gradient"/>
    <linearGradient id="linear-gradient-4" x1="105.89" y1="344.48" x2="105.89" y2="355.98" xlink:href="#linear-gradient"/>
    <linearGradient id="linear-gradient-5" x1="118.14" y1="72.83" x2="118.14" y2="86.95" gradientTransform="translate(-35.03 357.22) rotate(30.54) scale(1 -1)" xlink:href="#linear-gradient"/>
    <linearGradient id="linear-gradient-6" x1="143.09" y1="341.78" x2="143.09" y2="355.62" xlink:href="#linear-gradient"/>
    <linearGradient id="linear-gradient-7" x1="155.49" y1="340.48" x2="155.49" y2="355.9" xlink:href="#linear-gradient"/>
  </defs>
  <g id="a">
    <path class="cls-27" d="m356.81,99.7L195.81,6.7c-6.2-3.6-13.8-3.6-20,0L14.81,99.7c-6.2,3.6-10,10.2-10,17.3v185.9c0,7.1,3.8,13.7,10,17.3l161,93c6.2,3.6,13.8,3.6,20,0l161-93c6.2-3.6,10-10.2,10-17.3V117c0-7.1-3.8-13.7-10-17.3Z"/>
    <g>
      <path class="cls-16" d="m120.81,281c13.2,11.7,29.4,20,47.4,23.7h41.7c17.9-3.7,34.2-12,47.4-23.7l24.2-31.5c6.9-13.8,10.7-29.3,10.7-45.8,0-57-46.2-103.1-103.1-103.1s-103.1,46.2-103.1,103.1c0,16.5,3.9,32,10.7,45.8l24.1,31.5Z"/>
      <path class="cls-17" d="m166.31,304.3c7.3,1.7,15,2.5,22.8,2.5s15.4-.9,22.8-2.5l-1.4-22.9h-42.7l-1.5,22.9Z"/>
      <path class="cls-12" d="m189.11,281.4h-21.4l-1.4,22.9c6.8,1.5,13.9,2.4,21.2,2.5l1.6-25.4Z"/>
      <path class="cls-18" d="m103.21,260.8c5.3,8,11.7,15.2,18.9,21.4h133.9c7.3-6.2,13.6-13.4,18.9-21.4H103.21Z"/>
      <path class="cls-17" d="m103.21,260.8c5.3,8,11.7,15.2,18.9,21.4h30.5c-5.7-1.5-9.9-6.6-9.9-12.8v-8.6h-39.5Z"/>
      <path class="cls-25" d="m189.11,261.2l85.2.5c3-4.4,5.6-9,7.9-13.8v-97.2c0-3.9-3.2-7-7-7H102.91c-3.9,0-7,3.2-7,7v97.2c2.3,4.8,4.9,9.4,7.9,13.8l85.3-.5Z"/>
      <path class="cls-25" d="m102.91,143.7c-3.9,0-7,3.2-7,7v97.2c2.3,4.8,4.9,9.4,7.9,13.8l38.9-.2v-117.8h-39.8Z"/>
      <path class="cls-13" d="m272.11,153.3H106.11c-.3,0-.5.2-.5.5v96.7c0,.3.2.5.5.5h166c.3,0,.5-.2.5-.5v-96.7c0-.2-.2-.5-.5-.5Z"/>
      <path class="cls-26" d="m106.11,153.3c-.3,0-.5.2-.5.5v96.7c0,.3.2.5.5.5h36.7v-97.7h-36.7Z"/>
      <path class="cls-17" d="m193.91,271.5c0,2.7-2.2,4.8-4.8,4.8s-4.8-2.2-4.8-4.8,2.2-4.8,4.8-4.8c2.6,0,4.8,2.1,4.8,4.8Z"/>
      <path class="cls-20" d="m189.11,174.8v-9.3l-42.4-19.2c-.4.6-.7,1.4-.7,2.2v43.3c0,.8.2,1.5.7,2.2l42.4-19.2Z"/>
      <path class="cls-9" d="m167.91,184.4v-28.5h0l-21.2-9.6c-.4.6-.7,1.4-.7,2.2v43.3c0,.8.2,1.5.7,2.2l21.2-9.6Z"/>
      <path class="cls-9" d="m189.11,174.8l-42.4,19.2c.4.6,1,1.1,1.6,1.4l39.1,17.8c.8.4,1.6.3,1.6.4v-38.8h.1Z"/>
      <path class="cls-21" d="m189.11,213.5v-19.1l-21.2-10-21.2,9.6c.4.6,1,1.1,1.6,1.4l39.1,17.8c.9.3,1.7.3,1.7.3Z"/>
      <path class="cls-10" d="m231.61,193.8c.3-.6.5-1.3.5-2v-43.3c0-.8-.3-1.6-.7-2.2l-42.4,19.2v9.3l42.4,19.2c.1-.1.2-.2.2-.2Z"/>
      <path class="cls-11" d="m189.11,174.8v38.7c.5,0,1.1-.1,1.6-.4.8-.4,38.4-17.4,39.1-17.8.6-.3,1.2-.8,1.6-1.4l-42.3-19.1Z"/>
      <path class="cls-14" d="m189.11,194.4v19.1c.5,0,1.1-.1,1.6-.4.4-.2,9.9-4.5,19.5-8.8l-21.1-9.9Z"/>
      <path class="cls-24" d="m189.11,165.5l42.4-19.2c-.4-.6-1-1.1-1.6-1.4-4.1-1.9-35.3-16-39.1-17.8-.5-.2-1.1-.4-1.6-.4v38.8h-.1Z"/>
      <path class="cls-23" d="m189.11,165.5v-38.7c-.4,0-.9,0-1.6.4-4.3,2-34.9,15.8-39.1,17.8-.6.3-1.2.7-1.6,1.4l42.3,19.1Z"/>
    </g>
    <g class="cls-31">
      <image class="cls-30" width="416" height="205" transform="translate(0 145.34)" xlink:href="../A6385B238BA9990.png"/>
      <rect class="cls-22" x="19.61" y="157.1" width="333.4" height="122.9"/>
    </g>
    <rect class="cls-1" x="50.51" y="197.5" width="324.9" height="83.9"/>
    <g class="cls-29">
      <text class="cls-28" transform="translate(46.49 218.57) scale(.98 1)"><tspan x="0" y="0">containers </tspan></text>
      <text class="cls-28" transform="translate(46.49 253.37) scale(.98 1)"><tspan x="0" y="0">for R Submissions</tspan></text>
    </g>
    <g>
      <path class="cls-2" d="m70.69,323.95c-.46.78-1.04,1.36-1.74,1.76-.7.4-1.47.53-2.36.46-.89-.06-1.77-.35-2.72-.91l-1.72-1.02-2.49,4.22-2.58-1.52,7.01-11.89,4.13,2.44c1.46.86,2.38,1.87,2.8,2.93.59,1.16.43,2.23-.33,3.52Zm-2.58-1.52c.36-.6.49-1.22.21-1.73-.19-.46-.69-.99-1.47-1.45l-1.29-.76-2.19,3.7,1.38.81c.78.46,1.39.59,1.94.45.58,0,1.06-.42,1.42-1.02Z"/>
      <path class="cls-4" d="m74.55,334.93l3.01,1.78-.97,1.64-8.87-5.23.97-1.64,3.44,2.03,3.66-6.2-2.5-1.47,1.02-1.72,4.91,2.9-4.68,7.92Zm3.19-11.12l1.07-1.81,2.41,1.42-1.07,1.81-2.41-1.42Z"/>
      <path class="cls-5" d="m85.14,341.18l3.01,1.78-.97,1.64-8.87-5.23.97-1.64,3.44,2.03,5.74-9.73-2.5-1.47.97-1.64,4.91,2.9-6.71,11.37Z"/>
      <path class="cls-3" d="m100.58,346.11c-.91,1.55-2.11,2.59-3.39,2.99s-2.66.17-4.12-.69c-1.38-.81-2.24-1.9-2.51-3.22-.27-1.32.01-2.78.98-4.41.91-1.55,2.06-2.5,3.34-2.91s2.66-.17,4.12.69c3.07,1.69,3.56,4.19,1.58,7.55Zm-2.5-1.47c.66-1.12,1-2.08,1.04-2.75.05-.67-.32-1.23-1.01-1.64s-1.36-.45-2.01-.14-1.24,1.12-1.9,2.24-1,2.08-.96,2.8c.04.72.32,1.23,1.01,1.64s1.36.45,2.01.14c.48-.42,1.16-1.17,1.82-2.29Z"/>
      <path class="cls-7" d="m106.02,345.14l-1.38-.81,1.02-1.72,1.55.91,2.25-2.04,1.55.91-1.47,2.5,3.36,1.98-.97,1.64-3.36-1.98-2.74,4.65c-.3.52-.42.91-.44,1.14-.02.22.06.5.18.68s.42.48.76.68c.69.41,1.51.78,2.39,1.06l-.97,1.64c-.96-.34-1.53-.55-1.87-.76l-1.03-.61c-.78-.46-1.33-.9-1.61-1.41-.42-.48-.56-1.02-.56-1.61s.27-1.24.72-2.01l2.62-4.84Z"/>
      <path class="cls-8" d="m129.83,366.39l-1.47,2.5-2.33-1.37,1.47-2.5-5.51-3.25,1.12-1.89,9.59-4.44,2.76,1.63-4.42,7.49,1.64.97-1.07,1.81-1.72-1.02-.05.09Zm.93-6.88l.61-1.03c.2-.34.36-.6.49-.64-.38.24-.89.52-1.64,1.01l-5.09,2.34,3.53,2.08,2.19-3.7-.09-.05Z"/>
      <path class="cls-6" d="m131.71,370.87c.54-.72.95-1.41,1.31-2.02l6.51-11.02,2.41,1.42-2.03,3.44-.91,1.55h0c.56-.36,1.16-.59,1.74-.6s1.29.18,1.89.53c1.03.61,1.64,1.55,1.74,2.77s-.36,2.58-1.32,4.21c-.86,1.46-1.92,2.47-3.08,3.06s-2.28.51-3.31-.1c-.6-.36-1.02-.83-1.3-1.35s-.37-1.15-.27-1.9h0l-.46.78c-.2.34-.44.55-.54.72l-2.41-1.42.05-.09Zm5.34-3.35c-.41.69-.68,1.34-.81,1.96s-.16,1.06.03,1.53c.11.41.35.79.69.99.52.3,1.1.3,1.75-.01s1.24-1.12,1.85-2.16c.66-1.12.95-2,.99-2.67s-.27-1.32-.78-1.62c-.6-.36-1.19-.35-1.89.05-.68.18-1.23.9-1.84,1.93Z"/>
    </g>
    <g>
      <path class="cls-15" d="m231.01,370.8c-1.5-.3-2.6-1.1-3.3-2.4l-.6-1c-.8-1.3-.9-2.7-.3-4.1.5-1.4,1.5-2.5,2.9-3.2,1.6-.9,3.3-1.1,5-.5l-1.2,2.6c-.9-.3-1.8-.2-2.6.2-.7.4-1.1,1-1.3,1.8-.2.8-.1,1.6.3,2.3.4.7,1,1.3,1.8,1.5.8.3,1.5.2,2.3-.2.8-.4,1.2-1.1,1.5-2.1l2.8.4c-.4,1.8-1.5,3.1-3.1,4-1.3.8-2.7,1-4.2.7Z"/>
      <path class="cls-15" d="m241.41,364.9c-1.5-.4-2.7-1.4-3.5-2.9s-1-3-.6-4.5,1.4-2.7,2.9-3.5,3-1,4.5-.6,2.7,1.4,3.5,2.9,1,3,.6,4.5-1.4,2.7-2.9,3.5c-1.4.8-3,1-4.5.6Zm3.1-3c.8-.4,1.2-1,1.4-1.8.2-.8.1-1.6-.4-2.3-.4-.8-1-1.3-1.8-1.5-.8-.3-1.6-.2-2.3.3-.8.4-1.2,1-1.4,1.8-.2.8-.1,1.6.4,2.3.4.8,1,1.3,1.8,1.5s1.6.1,2.3-.3Z"/>
      <path class="cls-15" d="m252.21,352.3l3.6,6.4-2.8,1.6-5.5-9.8,2.7-1.9.5.9c.4-1,1-1.7,1.9-2.3,1.3-.7,2.5-.9,3.6-.5s2,1.1,2.5,2.1l3.5,6.3-2.8,1.6-3.1-5.6c-.4-.7-.8-1.1-1.4-1.3-.5-.2-1.2-.1-1.8.3-.7.4-1,1.1-.9,2.2Z"/>
      <path class="cls-15" d="m264.71,340.8c.7-.1,1.3,0,2,.2l-.6,2.7c-.8-.3-1.5-.3-2.2.1s-1.1.8-1.2,1.2c-.1.4,0,.6.4.7s.9,0,1.7-.2c1.1-.5,2.1-.6,2.9-.5.9.1,1.7.8,2.3,2,.5,1,.6,1.9.1,2.9-.5.9-1.2,1.7-2.2,2.3-1,.5-1.8.8-2.6.9-.8.1-1.5,0-2.2-.2l.6-2.7c.8.3,1.7.2,2.7-.2.8-.4,1.2-.8,1.3-1.2.1-.4,0-.6-.3-.8-.3-.2-.9,0-1.9.4-.9.4-1.8.5-2.7.5s-1.7-.6-2.3-1.8c-.6-1.1-.6-2.1-.2-3.1.5-1,1.1-1.7,1.9-2.2,1.1-.6,1.9-.9,2.5-1Z"/>
      <path class="cls-15" d="m274.01,346.7c-1.5-.4-2.7-1.4-3.5-2.9s-1-3-.6-4.5,1.4-2.7,2.9-3.5,3-1,4.5-.6,2.7,1.4,3.5,2.9,1,3,.6,4.5-1.4,2.7-2.9,3.5c-1.5.9-3,1.1-4.5.6Zm3.1-3c.8-.4,1.2-1,1.4-1.8.2-.8.1-1.6-.4-2.3-.4-.8-1-1.3-1.8-1.5-.8-.3-1.6-.2-2.3.3-.8.4-1.2,1-1.4,1.8-.2.8-.1,1.6.4,2.3.4.8,1,1.3,1.8,1.5s1.5.1,2.3-.3Z"/>
      <path class="cls-15" d="m283.11,331.7c.3-1.2,1-2,2-2.6.3-.2.7-.3,1-.5l1.1,3.1c-.5-.1-1,0-1.7.3-.7.4-.9,1.3-.9,2.5l3.5,6.2-2.8,1.6-5.5-9.8,2.7-1.9.6,1.1Z"/>
      <path class="cls-15" d="m298.11,335.1c-1.2.6-2.3.8-3.3.6-1-.2-1.8-.9-2.4-1.9l-2.4-4.4-1.5.8-1.3-2.3,1.5-.8-1.5-2.7,2.7-1.9,1.7,3.1,1.5-.8,1.3,2.3-1.5.8,2.2,4c.3.5.6.9,1,1s.7,0,1.1-.2c.1-.1.3-.2.7-.6l1.7,1.7c-.4.5-.9.9-1.5,1.3Z"/>
      <path class="cls-15" d="m294.31,319.5c.1-.4.4-.7.9-1s.9-.3,1.3-.2c.4.1.7.4,1,.8.2.4.3.8.2,1.2-.1.4-.4.7-.9,1s-.9.3-1.3.2c-.4-.1-.7-.4-1-.8-.3-.4-.3-.8-.2-1.2Zm10,12.1l-5.6-10.1-2.8,1.6,5.6,10.1,2.8-1.6Z"/>
      <path class="cls-15" d="m310.91,323.2l-3.6-6.5,2.8-1.6,5.6,10.1-2.8,1.6-.5-.9c-.4,1-1,1.7-1.9,2.3-1.3.7-2.5.9-3.6.5s-2-1.1-2.5-2.1l-3.5-6.3,2.8-1.6,3.1,5.6c.4.7.8,1.1,1.4,1.3.5.2,1.2.1,1.8-.3.6-.4.9-1.1.9-2.1Z"/>
      <path class="cls-15" d="m317.41,315.9l3.6,6.5-2.8,1.6-5.5-9.8,2.7-1.9.5.9c.3-.9,1-1.7,1.9-2.2,1.3-.7,2.5-.9,3.6-.5.3-1.2,1.2-2.2,2.7-3,1.3-.7,2.5-.9,3.6-.5s2,1.1,2.5,2.1l3.5,6.3-2.8,1.6-3.1-5.6c-.4-.7-.8-1.1-1.3-1.3-.5-.2-1.1-.1-1.8.2-.5.3-.8,1-.8,1.9.1.2.2.5.3.7l3.3,5.9-2.8,1.6-3.1-5.5c-.4-.7-.8-1.1-1.3-1.3-.5-.2-1.1-.1-1.8.2-.8.3-1.1,1-1.1,2.1Z"/>
      <path class="cls-25" d="m211.61,372.4c1.2,2.2,1.1,4-.2,5.6l6.1,2.9-3.7,2.1-5.4-2.6-2.1,1.2,2.4,4.3-3,1.7-7.5-13.4,5.1-2.8c2.1-1.2,3.8-1.6,5.1-1.4,1.2,0,2.3.9,3.2,2.4Zm-2.8,3.6c.2-.5.1-1.2-.3-1.9s-.9-1.1-1.4-1.1-1.3.2-2.2.7l-2.2,1.2,2.2,3.9,2.2-1.2c1-.5,1.6-1,1.7-1.6Z"/>
      <path class="cls-25" d="m206.31,395.5h0c-1,0-1.9-.9-1.9-2h0c0-1,.9-1.9,2-1.9h0c1,0,1.9.9,1.9,2h0c0,.7-.4,1.3-1,1.6h0c-.3.2-.7.3-1,.3Zm13-8.1c-.9-.5-1.2-1.7-.7-2.6h0c.5-.9,1.7-1.2,2.6-.6h0c.9.5,1.2,1.7.7,2.6h0c-.2.3-.4.5-.7.7h0c-.6.3-1.3.3-1.9-.1Zm-21.9,5.6c-.9-.5-1.2-1.7-.7-2.6h0c.5-.9,1.7-1.2,2.6-.7h0c.9.5,1.2,1.7.7,2.6h0c-.2.3-.4.5-.7.7h0c-.6.3-1.3.3-1.9,0Zm21.4-22.3h0c-.5-1-.2-2.2.7-2.7h0c.9-.5,2.1-.2,2.6.7h0c.5.9.2,2.1-.7,2.6h0c-.9.6-2.1.3-2.6-.6Zm-28.3,8.6c-1,0-1.9-.9-1.9-2h0c0-1,.9-1.9,2-1.9h0c1,0,1.9.9,1.9,1.9h0c0,.7-.4,1.3-1,1.7h0c-.3.2-.7.3-1,.3Zm16.2-15.8c-1,0-1.9-.9-1.9-2h0c0-1,.9-1.9,2-1.9h0c1,0,1.9.9,1.9,2h0c0,.7-.4,1.3-1,1.6h0c-.3.2-.7.3-1,.3Zm-7.1,1.8c-.9.5-2.1.2-2.6-.7h0c-.5-.9-.2-2.1.7-2.6h0c.9-.5,2.1-.2,2.6.7h0c.6.9.3,2-.7,2.6Z"/>
      <path class="cls-19" d="m212.61,392.5c-.5-.9-.2-2.1.7-2.6h0c.9-.5,2.1-.2,2.6.7h0c.5.9.2,2.1-.7,2.6h0c-.9.5-2,.2-2.6-.7Z"/>
      <path class="cls-19" d="m222.51,379.7c-1,0-1.9-.9-1.9-2h0c0-1,.9-1.9,2-1.9h0c1,0,1.9.9,1.9,2h0c0,.7-.4,1.3-1,1.6h0c-.3.2-.6.3-1,.3Z"/>
      <path class="cls-19" d="m190.91,386.3c-.5-.9-.2-2.1.7-2.6h0c.9-.5,2.1-.2,2.6.7h0c.5.9.2,2.1-.7,2.6h0c-.9.6-2.1.2-2.6-.7Z"/>
      <path class="cls-19" d="m213.71,365.4c-.9-.5-1.2-1.7-.7-2.6h0c.5-.9,1.7-1.2,2.6-.7h0c.9.5,1.2,1.7.7,2.6h0c-.2.3-.4.5-.7.7h0c-.6.4-1.3.4-1.9,0Z"/>
      <path class="cls-19" d="m191.81,371c-.9-.5-1.2-1.7-.7-2.6h0c.5-.9,1.7-1.2,2.6-.7h0c.9.5,1.2,1.7.7,2.6h0c-.2.3-.4.5-.7.7h0c-.6.4-1.3.4-1.9,0Z"/>
    </g>
  </g>
</svg>